<svg id="Layer_1" data-name="Layer 1" xmlns="http://www.w3.org/2000/svg" viewBox="0 0 274.71 311.26">
  <defs>
    <style>
      .cls-1 {
        fill: #d7ecaa;
      }

      .cls-2 {
        fill: #ff5056;
        stroke: #ff5056;
        stroke-miterlimit: 10;
      }
    </style>
  </defs>
  <g>
    <path class="cls-1" d="M178.84,395.56c3.7-2,7.91-2.33,12-2.61,50.3-3.46,95.94-21.59,131.48-57.82,40.2-41,56.46-93.07,63.3-148.74a106,106,0,0,0,.12-19.46,5.2,5.2,0,0,1,3-5.22c4.06-1.68,8.08-3.45,12.08-5.28l3.4-1.55c2.84-1.3,6.05.78,6.45,4.19.66,5.61,1.25,10.28,1.34,11.29a55,55,0,0,0,2.08,10.48c3.5,11.69,10.16,21.84,14.09,34.21,25.12,79-3.74,174.39-76.84,217.38a168.24,168.24,0,0,1-111.32,20.83c-20.77-3.39-68.37-19.38-68.07-47.21C172,401.48,175.15,397.53,178.84,395.56Z" transform="translate(-162.4 -144.12)"/>
    <g>
      <path class="cls-2" d="M423.56,206.77a143.44,143.44,0,0,0-7.19-17.38,121.91,121.91,0,0,1-6.88-16.8,51.42,51.42,0,0,1-2-10c-.05-.57-.26-2.29-.55-4.68l-.8-6.66a7.52,7.52,0,0,0-3.7-5.73,6.52,6.52,0,0,0-5.95-.27l-3.39,1.55c-4.56,2.08-8.37,3.75-12,5.25a7.45,7.45,0,0,0-4.42,7.47,104.6,104.6,0,0,1-.11,19c-8,65.16-27.92,112-62.67,147.43-33.65,34.29-77.39,53.52-130,57.14-4.72.32-8.95.76-12.92,2.87-4.84,2.58-8,7.48-8.06,12.47-.14,12.92,9.3,24.95,27.31,34.79a145.94,145.94,0,0,0,42.66,14.68A164.75,164.75,0,0,0,259.34,450,171.85,171.85,0,0,0,345.7,426.8C416.69,385.05,450.16,290.46,423.56,206.77Zm-40.73-50.56c3.68-1.52,7.55-3.21,12.15-5.31l3.4-1.55a1.87,1.87,0,0,1,.82-.19,2,2,0,0,1,1,.28,3,3,0,0,1,1.42,2.3l.8,6.67c.28,2.34.49,4,.54,4.56a54.72,54.72,0,0,0,1.69,9.19l-12.49,7.27L381.28,177a116.32,116.32,0,0,0-.08-17.84A3,3,0,0,1,382.83,156.21ZM173.1,390c3.17-1.69,6.9-2.06,11.09-2.35,53.77-3.7,98.5-23.38,132.94-58.49,35-35.72,55.28-82.67,63.62-147.58l9.81,2.18c11.57,67.46-18.42,143.71-74.94,190.18-21.6,17.75-45.43,29.83-68.93,34.94-30.75,6.68-60.2,2.29-79.12-11.72A10.69,10.69,0,0,1,173.1,390Zm170.3,32.91a167,167,0,0,1-109.8,20.54,141.49,141.49,0,0,1-41.21-14.19c-10.25-5.6-22.22-14.51-24.54-26.38,13.57,8.92,31.46,13.6,51.11,13.6a135.56,135.56,0,0,0,28.69-3.16c24.2-5.26,48.7-17.67,70.85-35.87C376.23,330,406.86,252,395.05,183l11-6.39a150.56,150.56,0,0,0,6.23,14.69,139.61,139.61,0,0,1,7,16.83C445.2,289.87,412.6,382.18,343.4,422.88Z" transform="translate(-162.4 -144.12)"/>
      <path class="cls-2" d="M383.45,357.49a2.28,2.28,0,0,0-3.15.63,158.79,158.79,0,0,1-36.85,39.28,2.27,2.27,0,0,0,1.36,4.09,2.31,2.31,0,0,0,1.36-.45,163.47,163.47,0,0,0,37.91-40.4A2.27,2.27,0,0,0,383.45,357.49Z" transform="translate(-162.4 -144.12)"/>
      <path class="cls-2" d="M406.4,198.88a2.26,2.26,0,0,0-1.59,2.78A196.12,196.12,0,0,1,397.22,326a2.26,2.26,0,0,0,1.25,3,2.29,2.29,0,0,0,.85.16,2.25,2.25,0,0,0,2.1-1.41,200.6,200.6,0,0,0,7.77-127.27A2.27,2.27,0,0,0,406.4,198.88Z" transform="translate(-162.4 -144.12)"/>
    </g>
  </g>
</svg>
