<svg id="Layer_1" data-name="Layer 1" xmlns="http://www.w3.org/2000/svg" viewBox="0 0 270.76 306.4">
  <defs>
    <style>
      .cls-1 {
        fill: #ff5056;
        stroke: #ff5056;
        stroke-miterlimit: 10;
      }
    </style>
  </defs>
  <g>
    <path class="cls-1" d="M418.59,192.06a123,123,0,0,1-6.88-16.79,50.65,50.65,0,0,1-2-10c-.06-.57-.26-2.29-.55-4.68l-.8-6.66a7.55,7.55,0,0,0-3.71-5.73,6.49,6.49,0,0,0-6-.27l-3.39,1.55c-4.54,2.07-8.35,3.74-12,5.25a7.46,7.46,0,0,0-4.43,7.47,104.58,104.58,0,0,1-.1,19c-8,65.15-27.93,112-62.67,147.42-33.65,34.3-77.39,53.53-130,57.15-4.73.32-9,.76-12.92,2.87a14.79,14.79,0,0,0-8.07,12.47c-.14,12.92,9.31,24.95,27.31,34.78a145.9,145.9,0,0,0,42.66,14.69,164.75,164.75,0,0,0,26.47,2.12,171.82,171.82,0,0,0,86.37-23.23c71-41.74,104.45-136.33,77.86-220A142,142,0,0,0,418.59,192.06Zm-33.54-33.17c3.71-1.53,7.57-3.22,12.16-5.31L400.6,152a1.93,1.93,0,0,1,1.83.09,3,3,0,0,1,1.43,2.3l.8,6.67c.28,2.34.48,4,.53,4.56a55.75,55.75,0,0,0,1.69,9.19l-12.48,7.27-10.93-2.42a119,119,0,0,0,0-17.83A3,3,0,0,1,385.05,158.89ZM175.32,392.65c3.17-1.69,6.9-2.06,11.1-2.35,53.76-3.7,98.49-23.38,132.94-58.49,35-35.72,55.26-82.69,63.6-147.58l9.81,2.17c11.57,67.47-18.4,143.71-74.93,190.19-21.59,17.75-45.43,29.83-68.93,34.94-30.75,6.68-60.19,2.27-79.11-11.74A10.69,10.69,0,0,1,175.32,392.65Zm170.31,32.91a167.06,167.06,0,0,1-109.8,20.54,141.14,141.14,0,0,1-41.22-14.19c-10.24-5.59-22.18-14.51-24.51-26.37,13.56,8.91,31.45,13.59,51.08,13.59a135.73,135.73,0,0,0,28.7-3.16c24.2-5.26,48.7-17.67,70.84-35.87,57.73-47.47,88.34-125.39,76.54-194.4l11-6.41a150.65,150.65,0,0,0,6.21,14.7,139.61,139.61,0,0,1,7,16.83C447.43,292.55,414.83,384.86,345.63,425.56Z" transform="translate(-164.62 -146.8)"/>
    <path class="cls-1" d="M385.67,360.17a2.27,2.27,0,0,0-3.14.63,158.84,158.84,0,0,1-36.86,39.28,2.27,2.27,0,1,0,2.73,3.63,162.87,162.87,0,0,0,37.9-40.39A2.26,2.26,0,0,0,385.67,360.17Z" transform="translate(-164.62 -146.8)"/>
    <path class="cls-1" d="M408.63,201.56a2.27,2.27,0,0,0-1.6,2.78,196.05,196.05,0,0,1-7.59,124.38,2.28,2.28,0,0,0,1.25,3,2.33,2.33,0,0,0,.85.16,2.27,2.27,0,0,0,2.11-1.41,200.6,200.6,0,0,0,7.76-127.27A2.26,2.26,0,0,0,408.63,201.56Z" transform="translate(-164.62 -146.8)"/>
  </g>
</svg>
