<svg id="Layer_1" data-name="Layer 1" xmlns="http://www.w3.org/2000/svg" viewBox="0 0 279.29 371.05">
  <defs>
    <style>
      .cls-1 {
        fill: #ff5056;
        stroke: #ff5056;
        stroke-miterlimit: 10;
      }
    </style>
  </defs>
  <path class="cls-1" d="M169.39,482.33a17.51,17.51,0,0,0,6.16,2.32,17.74,17.74,0,0,0,16-5.26c44.12-46.86,87-96.32,128.56-144.16,2.73-3.14,5.64-6.33,8.72-9.7,14.64-16,31.22-34.13,34-55.14a63,63,0,0,0-14-48.18c72.08,11.86,89.69-69.34,89.86-70.18l.44-2.14-2.12-.52c-36.85-9.12-67.92,4.45-90.86,39.38,9.46-45.51-18.95-71-20.25-72.14l0,0,0,0-1.77-1.49-1.45,1.8c-32.41,40-10.43,76.74-1.9,88.2a62.08,62.08,0,0,0-33.52,2.43c-17.76,6.27-33.11,22.68-42.12,45q-11.77,29.22-23.44,58.5l-6.72,16.82c-20.79,52-37.56,94.21-52.76,132.85A17.69,17.69,0,0,0,169.39,482.33ZM430.71,152.66l-22.6,15.07a2.27,2.27,0,0,0-.63,3.15,2.28,2.28,0,0,0,3.15.62l22.07-14.71a114.6,114.6,0,0,1-16,33.11c-17.35,24.11-41.25,33.28-70.85,27.17h-.06a2.24,2.24,0,0,0-1.61.32l-1-.95c13-9.34,26-17.74,39.66-26.62,4.52-2.93,9.1-5.9,13.78-9a2.27,2.27,0,0,0-2.49-3.8c-4.67,3.06-9.25,6-13.76,8.95-14.09,9.13-27.4,17.76-40.85,27.46l-1.29-1C359.79,165.88,391.68,145.3,430.71,152.66ZM327,205.65c-1.49-1.59-34.75-38.18-4.5-81.09l3.18,49.55a2.26,2.26,0,0,0,1.87,2.09,2.42,2.42,0,0,0,.54,0,2.27,2.27,0,0,0,2.12-2.41L327,124.34c9,10.52,27.74,40.06,7.29,85.77-.61-.34-1.24-.66-1.87-1a.87.87,0,0,0,0-.23l-1.19-18.52a2.27,2.27,0,0,0-4.53.29l1.06,16.45-.21-.07A2.23,2.23,0,0,0,327,205.65ZM166.36,462.38c8.12-20.62,16.68-42.26,26-65.85a187.08,187.08,0,0,0,26.59,16,2.39,2.39,0,0,0,.62.21,2.27,2.27,0,0,0,1.41-4.27,181,181,0,0,1-26.88-16.3c7.7-19.36,15.95-40,25-62.59l6.72-16.82c.38-.95.76-1.89,1.13-2.84.08.06.15.13.23.18s18.38,12.26,45,27.54a2,2,0,0,0,.74.27,2.27,2.27,0,0,0,1.52-4.21c-26.52-15.2-44.6-27.25-44.78-27.37a2.28,2.28,0,0,0-1.16-.38q7.83-19.57,15.68-39.15a453.63,453.63,0,0,0,45,27.51,2.27,2.27,0,1,0,2.16-4A446.49,446.49,0,0,1,246.76,263a2.3,2.3,0,0,0-.85-.37c1.12-2.79,2.24-5.59,3.37-8.38,8.52-21.14,22.88-36.61,39.41-42.44a58,58,0,0,1,29.11-2.69A45.25,45.25,0,0,1,333.71,215a42.33,42.33,0,0,1,3.74,2.58c15.27,11.79,23.44,32.29,20.82,52.23A54.3,54.3,0,0,1,352,288.27a291.55,291.55,0,0,1-34.4-21.18,2.27,2.27,0,0,0-2.73,3.63,295.78,295.78,0,0,0,34.89,21.5C343.21,303,334,313.13,325.45,322.47c-3.1,3.39-6,6.6-8.8,9.79-17.33,20-34.91,40.22-52.71,60.44a292.54,292.54,0,0,1-35.06-21.53,2.28,2.28,0,0,0-2.73,3.64,297.19,297.19,0,0,0,34.7,21.4c-23.82,27-48,54-72.63,80.06a13.19,13.19,0,0,1-21.86-13.89Z" transform="translate(-160.4 -114.37)"/>
</svg>
