<svg id="Layer_1" data-name="Layer 1" xmlns="http://www.w3.org/2000/svg" viewBox="0 0 282.22 372.45">
  <defs>
    <style>
      .cls-1 {
        fill: #d7ecaa;
      }

      .cls-2 {
        fill: #ff5056;
        stroke: #ff5056;
        stroke-miterlimit: 10;
      }
    </style>
  </defs>
  <g>
    <g>
      <path class="cls-1" d="M329.75,210.4l20.11,12.1c73.95,15.15,91-67.72,91-67.72-44.38-11-78.14,11.85-100.44,60.33,27.63-60.59-11.63-93.6-11.63-93.6C290.64,168.6,329.75,210.4,329.75,210.4Z" transform="translate(-158.64 -113.42)"/>
      <path class="cls-1" d="M343.26,219q-1.9-1.46-3.94-2.72c-13.49-8.24-31-9-47-3.39-19.25,6.79-33.05,24.59-40.77,43.74q-15.17,37.63-30.16,75.32-26.53,66.36-52.75,132.83A15.46,15.46,0,0,0,194.3,481c44-46.76,86.28-95.44,128.49-144.08,15.79-18.2,38.94-39.08,42.16-63.65C367.77,251.82,358.43,230.69,343.26,219Z" transform="translate(-158.64 -113.42)"/>
    </g>
    <path class="cls-2" d="M435.22,148.42c-36.85-9.12-67.92,4.44-90.86,39.38,9.46-45.51-18.94-71-20.25-72.14l0,0,0,0-1.77-1.49-1.45,1.8c-32.41,40-10.43,76.74-1.9,88.2a62.08,62.08,0,0,0-33.52,2.43c-17.76,6.27-33.11,22.68-42.12,45q-11.78,29.22-23.44,58.5l-6.72,16.82c-20.79,52-37.55,94.2-52.76,132.84a17.7,17.7,0,0,0,7.25,21.62,17.51,17.51,0,0,0,6.16,2.32,17.75,17.75,0,0,0,16-5.27c44.11-46.85,87-96.31,128.55-144.15,2.73-3.14,5.64-6.33,8.72-9.7,14.64-16,31.22-34.13,34-55.14a62.92,62.92,0,0,0-14-48.18c72.08,11.86,89.69-69.34,89.86-70.18l.44-2.14Zm-110,56.28c-1.49-1.59-34.75-38.18-4.5-81.09l3.18,49.55a2.27,2.27,0,0,0,1.87,2.09,2.45,2.45,0,0,0,.54,0,2.27,2.27,0,0,0,2.12-2.41l-3.18-49.48c8.95,10.52,27.74,40.06,7.29,85.77-.61-.34-1.23-.67-1.87-1a.89.89,0,0,0,0-.23l-1.19-18.52a2.27,2.27,0,0,0-4.53.29L326,206.16l-.21-.07A2.22,2.22,0,0,0,325.23,204.7Zm31.28,64.15a54.3,54.3,0,0,1-6.27,18.47,292.61,292.61,0,0,1-34.4-21.18,2.27,2.27,0,1,0-2.73,3.63A298.46,298.46,0,0,0,348,291.27c-6.55,10.82-15.77,20.91-24.31,30.24-3.1,3.4-6,6.61-8.8,9.79-17.33,20-34.91,40.22-52.71,60.45a294.6,294.6,0,0,1-35.06-21.53,2.27,2.27,0,0,0-2.73,3.63,295,295,0,0,0,34.7,21.4c-23.82,27-48,54-72.63,80.07a13.19,13.19,0,0,1-21.85-13.89c8.11-20.62,16.67-42.26,26-65.85a187.08,187.08,0,0,0,26.59,16,2.39,2.39,0,0,0,.62.21,2.27,2.27,0,0,0,1.41-4.27,181,181,0,0,1-26.88-16.3c7.7-19.36,16-40.06,25-62.59l6.72-16.82,1.14-2.84a1.92,1.92,0,0,0,.22.18c.18.12,18.38,12.26,45,27.54a2,2,0,0,0,.74.27,2.27,2.27,0,0,0,1.52-4.21c-26.51-15.2-44.6-27.25-44.78-27.38a2.37,2.37,0,0,0-1.16-.37q7.83-19.58,15.68-39.15a459.5,459.5,0,0,0,45,27.51,2.37,2.37,0,0,0,.69.24,2.27,2.27,0,0,0,1.47-4.24A445.45,445.45,0,0,1,245,262a2.14,2.14,0,0,0-.85-.37c1.13-2.79,2.24-5.59,3.37-8.38,8.52-21.14,22.88-36.61,39.41-42.44A58,58,0,0,1,316,208.16,45.25,45.25,0,0,1,332,214a40.91,40.91,0,0,1,3.74,2.58C351,228.4,359.13,248.91,356.51,268.85Zm-12.37-52.73-.07,0a2.29,2.29,0,0,0-1.61.33l-1-1c13-9.35,26-17.75,39.66-26.62,4.52-2.93,9.1-5.9,13.78-9a2.27,2.27,0,0,0-2.49-3.8c-4.67,3.06-9.25,6-13.76,9-14.09,9.13-27.4,17.76-40.85,27.46-.43-.32-.86-.65-1.29-.95C358,164.93,389.92,144.35,429,151.71l-22.6,15.07a2.27,2.27,0,0,0,.87,4.12,2.22,2.22,0,0,0,1.65-.35L431,155.84A115,115,0,0,1,415,189C397.63,213.05,373.73,222.23,344.14,216.12Z" transform="translate(-158.64 -113.42)"/>
  </g>
</svg>
