<svg id="Layer_1" data-name="Layer 1" xmlns="http://www.w3.org/2000/svg" viewBox="0 0 284.07 266.77">
  <defs>
    <style>
      .cls-1 {
        fill: #d7ecaa;
      }

      .cls-2 {
        fill: #ff5056;
        stroke: #ff5056;
        stroke-miterlimit: 10;
      }
    </style>
  </defs>
  <g>
    <path class="cls-1" d="M439,239.52H370.37l-.05-.05c26.54-13.4,31-50.41,24.6-66.34-1.45-3.59-5.52-5.09-8.2-2.29l-46.11,46.85A83.31,83.31,0,0,0,305.87,210h-.37a83.15,83.15,0,0,0-34.72,7.74l-46.13-46.85c-2.66-2.8-6.75-1.28-8.2,2.29-6.43,15.92-1.95,52.8,24.45,66.28l-.12.13H172.39a2.76,2.76,0,0,0-2.7,3.45c2.79,11.27,12.15,46.22,49,34.64a120,120,0,0,0-6.42,38.9s-.62,15.56,3.61,29.47c.18.68.36,1.36.57,2.06l.06-.08c.06.15.11.3.16.45-5.77,7.38-9,15.59-9,24.25,0,32,44,57.93,98.23,57.93s98.25-25.93,98.25-57.93c0-8.79-3.34-17.15-9.29-24.62,3.18-10.7,4.29-19.63,4.29-31.53a119.22,119.22,0,0,0-6.43-38.9c36.84,11.58,46.2-23.37,49-34.64A2.8,2.8,0,0,0,439,239.52Z" transform="translate(-157.71 -166.62)"/>
    <g>
      <path class="cls-2" d="M433.88,239.2a5,5,0,0,0-4-1.94H369c21.6-16.4,25-49.95,18.89-65a8.18,8.18,0,0,0-5.83-5.05,6.62,6.62,0,0,0-6.09,2L331,215a85.55,85.55,0,0,0-34.57-7.32h-.06v0a96.46,96.46,0,0,0-33.58,7.93l-45.58-46.32a6.6,6.6,0,0,0-6.11-2,8.14,8.14,0,0,0-5.82,5c-6.08,15-2.71,48.59,18.89,65H163.29a5,5,0,0,0-4.92,6.28c1.62,6.5,6.55,26.28,21.6,34.72a31.78,31.78,0,0,0,15.79,4,45.5,45.5,0,0,0,10.38-1.28,120.83,120.83,0,0,0-5.26,35.59c0,12.54,1.15,21.44,4.06,31.52-5.71,7.66-8.69,16-8.69,24.62,0,33.2,45.09,60.21,100.51,60.21s100.52-27,100.52-60.21c0-8.77-3.11-17.28-9-25.08,2.91-10.17,4.06-19,4.06-31.06a121.45,121.45,0,0,0-5.28-35.6,45.7,45.7,0,0,0,10.4,1.29,31.71,31.71,0,0,0,15.79-4c15-8.43,20-28.21,21.6-34.71A5,5,0,0,0,433.88,239.2Zm-136.06-27c33.95.6,63.46,22.44,78.77,54.38a2.39,2.39,0,0,0,.22.93,2.19,2.19,0,0,0,.53.67c.58,1.27,1.14,2.55,1.68,3.85-7.9,1.75-15.42,3-22.69-.88-1.4-.75-2.74-1.63-4.16-2.57a33.86,33.86,0,0,0-7.84-4.21c-4.12-1.39-8.35-1.2-12.44-1a53.54,53.54,0,0,1-6.82,0c-8.93-.78-17.6-6.75-22.61-15.59a44.11,44.11,0,0,1-5.36-19.12C297,226.58,297.13,215.78,297.82,212.24Zm68.23,29.56h58.58l-44.55,21.64A109.93,109.93,0,0,0,366.05,241.8Zm13.21-69.4a2.08,2.08,0,0,1,2-.7,3.57,3.57,0,0,1,2.47,2.28c6,14.85,2,49.38-22.18,62.74a96.12,96.12,0,0,0-26.21-19.66ZM209.46,174a3.57,3.57,0,0,1,2.47-2.28,2.11,2.11,0,0,1,2,.73l44.48,45.2A98.35,98.35,0,0,0,232,236.92C207.53,223.71,203.42,188.91,209.46,174Zm3.67,89.49-44.6-21.67h59A106.49,106.49,0,0,0,213.13,263.47Zm-30.94,10.82c-12.18-6.83-17.05-22.71-18.95-30l47.94,23.29c-1.21,2.67-2.31,5.41-3.32,8.21C197.84,278.71,189.2,278.23,182.19,274.29Zm202.48,69.08a66.2,66.2,0,0,0-5-4.86,2.27,2.27,0,0,0-3,3.43c10.5,9.14,16.06,19.77,16.06,30.73,0,30.7-43.06,55.67-96,55.67s-96-25-96-55.67c0-11.74,6.31-23,18.25-32.56a2.27,2.27,0,1,0-2.84-3.55,68,68,0,0,0-7.72,7.22c-2.19-8.46-3.06-16.45-3.06-27.25a118.09,118.09,0,0,1,3.16-27.29c2.9,0,9.43.31,13.47,3.78a10,10,0,0,1,3.43,7.39l.05.38c.52,2.22,2.4,6.11,6.21,6.63.51.07,12,1.77,13.68,13.43-3.41,1.21-6.73,2.55-9.92,4a2.27,2.27,0,0,0,.95,4.33,2.24,2.24,0,0,0,.94-.2,117.65,117.65,0,0,1,11.05-4.39l.08,0A150.35,150.35,0,0,1,296.76,317c20.68,0,40.38,3.78,57,10.94a2.27,2.27,0,1,0,1.8-4.17c-17.17-7.4-37.5-11.31-58.79-11.31a156.27,156.27,0,0,0-47,6.92c-2.1-11.34-12.06-15.73-17.43-16.46-1.3-.18-2.13-2.24-2.35-3a14.46,14.46,0,0,0-5-10.34c-4.65-4-11.35-4.78-15.23-4.87a109.45,109.45,0,0,1,6.16-16.56,2.2,2.2,0,0,0,.63-1.32c14.72-30.34,42.8-51.35,76.68-54.38-1,6-.68,16.4-.67,16.53a48.6,48.6,0,0,0,5.94,21.08c5.74,10.11,15.77,17,26.16,17.86a57.43,57.43,0,0,0,7.42,0c3.84-.16,7.48-.32,10.8.79a30.21,30.21,0,0,1,6.78,3.71c1.44.95,2.94,1.93,4.54,2.78,8.89,4.71,17.82,3.1,26.48,1.15a116.59,116.59,0,0,1,7.05,40.18A102.1,102.1,0,0,1,384.67,343.37ZM411,274.29c-7,3.93-15.64,4.42-25.66,1.48-.3-.83-.61-1.66-.92-2.48a.37.37,0,0,1,0-.11,2.11,2.11,0,0,0-.31-.7c-.65-1.67-1.33-3.31-2.06-4.93l47.92-23.27C428,251.58,423.15,267.47,411,274.29Z" transform="translate(-157.71 -166.62)"/>
      <circle class="cls-2" cx="92.24" cy="127.2" r="6.76"/>
      <circle class="cls-2" cx="343.21" cy="293.81" r="6.77" transform="translate(-217.29 331.84) rotate(-67.5)"/>
      <path class="cls-2" d="M247.87,359.44a6.94,6.94,0,1,0,6.94,6.94A7,7,0,0,0,247.87,359.44Zm0,9.34a2.4,2.4,0,1,1,2.4-2.4A2.4,2.4,0,0,1,247.87,368.78Z" transform="translate(-157.71 -166.62)"/>
      <path class="cls-2" d="M350,359.44a6.94,6.94,0,1,0,6.94,6.94A6.94,6.94,0,0,0,350,359.44Zm0,9.34a2.4,2.4,0,1,1,2.4-2.4A2.4,2.4,0,0,1,350,368.78Z" transform="translate(-157.71 -166.62)"/>
    </g>
  </g>
</svg>
