<svg id="Layer_1" data-name="Layer 1" xmlns="http://www.w3.org/2000/svg" viewBox="0 0 277.74 266.77">
  <defs>
    <style>
      .cls-1 {
        fill: #ff5056;
        stroke: #ff5056;
        stroke-miterlimit: 10;
      }
    </style>
  </defs>
  <g>
    <path class="cls-1" d="M437.3,239.2a5.05,5.05,0,0,0-4-1.95H372.44c21.61-16.39,25-49.94,18.89-65a8.12,8.12,0,0,0-5.82-5,6.59,6.59,0,0,0-6.09,2L334.37,215a85.47,85.47,0,0,0-34.55-7.34v1.06l-.06-1.08a96.46,96.46,0,0,0-33.58,7.93L220.6,169.27a6.61,6.61,0,0,0-6.11-2,8.16,8.16,0,0,0-5.82,5c-6.09,15-2.72,48.59,18.89,65H166.7a5.06,5.06,0,0,0-4.92,6.28c1.62,6.5,6.56,26.28,21.61,34.72a31.78,31.78,0,0,0,15.79,4,45.62,45.62,0,0,0,10.39-1.29,121,121,0,0,0-5.28,35.61c0,12.52,1.16,21.43,4.08,31.5-5.72,7.66-8.7,16-8.7,24.63,0,33.2,45.09,60.21,100.51,60.21s100.52-27,100.52-60.21c0-8.77-3.11-17.29-9.06-25.09,2.9-10.16,4.06-19,4.06-31.05a121.8,121.8,0,0,0-5.29-35.61,45.28,45.28,0,0,0,10.42,1.3,31.77,31.77,0,0,0,15.78-4c15.05-8.43,20-28.21,21.61-34.71A5,5,0,0,0,437.3,239.2Zm-9.24,2.6-44.58,21.65a109.75,109.75,0,0,0-14-21.65Zm-45.38-69.4a2.06,2.06,0,0,1,2-.7,3.58,3.58,0,0,1,2.46,2.28c6,14.85,2,49.4-22.18,62.75a95.93,95.93,0,0,0-26.22-19.65Zm-81.44,39.86c35.84.64,66.73,24.94,81.19,59.81-7.9,1.75-15.42,3-22.68-.88-1.41-.75-2.75-1.63-4.17-2.57a34,34,0,0,0-7.83-4.22c-4.12-1.38-8.35-1.19-12.44-1a51.91,51.91,0,0,1-6.83,0c-8.93-.78-17.59-6.75-22.6-15.58a44.19,44.19,0,0,1-5.36-19.13C300.39,226.58,300.54,215.81,301.24,212.26ZM212.88,174a3.57,3.57,0,0,1,2.46-2.29,2.1,2.1,0,0,1,2,.73l44.48,45.2a98,98,0,0,0-26.39,19.3C211,223.72,206.84,188.91,212.88,174ZM231,241.8a107.21,107.21,0,0,0-14.39,21.68L172,241.8Zm-45.35,32.5c-12.19-6.84-17.05-22.73-19-30l48,23.3c-1.2,2.66-2.32,5.38-3.33,8.17C201.27,278.7,192.62,278.23,185.61,274.3Zm205.55,42.23a101.67,101.67,0,0,1-3.08,26.84,66,66,0,0,0-5-4.86,2.27,2.27,0,1,0-3,3.43c10.5,9.15,16,19.77,16,30.73,0,30.7-43,55.67-96,55.67s-96-25-96-55.67c0-11.74,6.31-23,18.25-32.56a2.27,2.27,0,0,0-2.84-3.55,67.12,67.12,0,0,0-7.72,7.22c-2.19-8.47-3.06-16.45-3.06-27.24a117.56,117.56,0,0,1,3.19-27.3c2.9,0,9.38.3,13.42,3.77a10,10,0,0,1,3.44,7.41l.06.38c.51,2.21,2.4,6.1,6.2,6.62.51.07,12,1.8,13.67,13.49-3.39,1.21-6.73,2.5-9.91,4a2.28,2.28,0,0,0,1,4.34,2.3,2.3,0,0,0,.95-.21c17.08-7.85,37.61-12,59.37-12,20.67,0,40.38,3.78,57,10.94a2.27,2.27,0,0,0,1.8-4.17c-17.18-7.4-37.5-11.31-58.79-11.31a156.2,156.2,0,0,0-47,6.93c-2.54-14.26-16.8-16.38-17.44-16.47-1.3-.18-2.13-2.23-2.36-3a14.42,14.42,0,0,0-5-10.35c-4.64-4-11.32-4.77-15.2-4.86,11.25-39.76,43.26-68.67,83.45-72.26-1,6-.68,16.4-.67,16.53a48.6,48.6,0,0,0,5.94,21.08c5.74,10.11,15.76,17,26.16,17.87a57.41,57.41,0,0,0,7.42,0c3.84-.17,7.47-.32,10.8.79a30.15,30.15,0,0,1,6.77,3.71c1.45.95,2.94,1.94,4.54,2.78,8.9,4.72,17.82,3.1,26.48,1.15A116.55,116.55,0,0,1,391.16,316.53Zm23.23-42.24c-7,3.93-15.66,4.4-25.7,1.45-1-2.79-2.09-5.51-3.28-8.18l47.93-23.28C431.44,251.57,426.58,267.46,414.39,274.29Z" transform="translate(-161.13 -166.62)"/>
    <path class="cls-1" d="M253.37,287.05a6.77,6.77,0,1,0,6.77,6.77A6.77,6.77,0,0,0,253.37,287.05Z" transform="translate(-161.13 -166.62)"/>
    <path class="cls-1" d="M346.63,287a6.77,6.77,0,1,0,6.76,6.77A6.77,6.77,0,0,0,346.63,287Z" transform="translate(-161.13 -166.62)"/>
    <path class="cls-1" d="M251.28,359.44a6.94,6.94,0,1,0,6.94,6.94A6.94,6.94,0,0,0,251.28,359.44Zm0,9.34a2.4,2.4,0,1,1,2.4-2.4A2.4,2.4,0,0,1,251.28,368.78Z" transform="translate(-161.13 -166.62)"/>
    <path class="cls-1" d="M353.39,359.44a6.94,6.94,0,1,0,6.95,6.94A7,7,0,0,0,353.39,359.44Zm0,9.34a2.4,2.4,0,1,1,2.4-2.4A2.4,2.4,0,0,1,353.39,368.78Z" transform="translate(-161.13 -166.62)"/>
  </g>
</svg>
