<svg id="Layer_1" data-name="Layer 1" xmlns="http://www.w3.org/2000/svg" viewBox="0 0 160.67 294.63">
  <defs>
    <style>
      .cls-1 {
        fill: #e1ecbd;
      }

      .cls-2 {
        fill: #fc3645;
      }
    </style>
  </defs>
  <g>
    <path class="cls-1" d="M206.24,55.23l13.2-43.81a5,5,0,0,0-3-5.95L208,2.85a4.1,4.1,0,0,0-3.14.35,6.43,6.43,0,0,0-3,3.86l-14.5,48.17H77.41L96.07,289.11a8.14,8.14,0,0,0,8,8.21h99.7a8.14,8.14,0,0,0,8-8.21L230.33,55.23Z" transform="translate(-69.67 -2.68)"/>
    <g>
      <path class="cls-2" d="M198.49,55.23l13.2-43.81a5,5,0,0,0-3-5.95l-8.47-2.62a4.12,4.12,0,0,0-3.15.35,6.38,6.38,0,0,0-3,3.86L179.59,55.23H69.67L88.32,289.11a8.15,8.15,0,0,0,8,8.21H196a8.15,8.15,0,0,0,8-8.21L222.59,55.23Zm0-46.85a2.37,2.37,0,0,1,.64-1.09l8,2.49c.07.12.14.31.16.32l-13.6,45.13h-9.36Zm.91,280.45V289a3.58,3.58,0,0,1-3.39,3.74H96.28A3.58,3.58,0,0,1,92.89,289L74.61,59.79h143Z" transform="translate(-69.67 -2.68)"/>
      <polygon class="cls-2" points="39.21 138.16 36.21 138.16 36.21 156.47 47.25 156.47 47.59 153.73 39.21 153.73 39.21 138.16"/>
      <path class="cls-2" d="M125.48,140.84l-7.63,18.32h3.37l1.65-4.3h8.07l1.68,4.3H136l-7.55-18.32Zm-1.7,11.64,1.91-5c.44-1.17.85-2.31,1.16-3.44h.08c.34,1.13.73,2.27,1.17,3.44l1.94,5Z" transform="translate(-69.67 -2.68)"/>
      <path class="cls-2" d="M150.08,146.28c0-3.65-2.22-5.44-6.33-5.44H138v18.32h3v-7.63h2.46l5.25,7.63h3.11l.18-.44-5.46-7.63A4.74,4.74,0,0,0,150.08,146.28Zm-6.8,2.79H141v-5.69h2.28c2.61,0,3.85.77,3.85,2.9S145.92,149.07,143.28,149.07Z" transform="translate(-69.67 -2.68)"/>
      <path class="cls-2" d="M163.56,151.94h4.94v.1c-.2,3.24-2.92,4.84-6,4.84-3.73,0-6.37-2.9-6.37-6.83s2.75-6.88,6.52-6.88a6.25,6.25,0,0,1,5.77,3.21l.44.1,2.2-1.45a9.13,9.13,0,0,0-8.49-4.68,9.39,9.39,0,0,0-9.67,9.7c0,5.61,3.85,9.6,9.26,9.6a7.35,7.35,0,0,0,6.52-3.26l0,0a5.57,5.57,0,0,0-.26,1.75v1h2.74v-9.65h-7.68Z" transform="translate(-69.67 -2.68)"/>
      <polygon class="cls-2" points="116.71 140.8 116.42 138.16 105.56 138.16 105.56 156.47 116.42 156.47 116.71 153.84 108.56 153.84 108.56 148.4 116.04 148.4 116.04 145.82 108.56 145.82 108.56 140.8 116.71 140.8"/>
    </g>
  </g>
</svg>
