<svg id="Layer_1" data-name="Layer 1" xmlns="http://www.w3.org/2000/svg" viewBox="0 0 154.92 298.49">
  <defs>
    <style>
      .cls-1 {
        fill: #fc3645;
      }
    </style>
  </defs>
  <g>
    <path class="cls-1" d="M203.05,54,216.42,9.6a5.05,5.05,0,0,0-3-6L204.79.93a4.17,4.17,0,0,0-3.19.34,6.54,6.54,0,0,0-3,3.92L183.9,54H72.54l18.9,236.94a8.24,8.24,0,0,0,8.06,8.32h101a8.24,8.24,0,0,0,8.06-8.32L227.46,54Zm0-47.46a2.4,2.4,0,0,1,.65-1.11l8.16,2.52c.07.12.13.32.15.33L198.22,54h-9.49ZM204,290.65v.19a3.63,3.63,0,0,1-3.44,3.78H99.5a3.63,3.63,0,0,1-3.44-3.78L77.55,58.61h144.9Z" transform="translate(-72.54 -0.75)"/>
    <polygon class="cls-1" points="39.72 139.97 36.68 139.97 36.68 158.52 47.87 158.52 48.21 155.75 39.72 155.75 39.72 139.97"/>
    <path class="cls-1" d="M129.09,140.72l-7.74,18.56h3.41l1.68-4.35h8.17l1.71,4.35h3.4l-7.65-18.56Zm-1.73,11.8,1.93-5a35.69,35.69,0,0,0,1.18-3.48h.08c.34,1.15.74,2.31,1.18,3.48l2,5Z" transform="translate(-72.54 -0.75)"/>
    <path class="cls-1" d="M154,146.23c0-3.7-2.25-5.51-6.42-5.51h-5.85v18.56h3.07v-7.73h2.49l5.32,7.73h3.14l.19-.45-5.53-7.73A4.79,4.79,0,0,0,154,146.23Zm-6.89,2.83h-2.31v-5.77h2.31c2.64,0,3.9.79,3.9,2.94S149.79,149.06,147.12,149.06Z" transform="translate(-72.54 -0.75)"/>
    <path class="cls-1" d="M167.66,152h5v.1c-.21,3.28-3,4.9-6.06,4.9-3.77,0-6.44-2.93-6.44-6.92s2.78-7,6.6-7a6.34,6.34,0,0,1,5.85,3.25l.44.11,2.23-1.47a9.22,9.22,0,0,0-8.6-4.74,9.5,9.5,0,0,0-9.8,9.82c0,5.69,3.91,9.72,9.38,9.72a7.44,7.44,0,0,0,6.61-3.3l.05,0a5.72,5.72,0,0,0-.26,1.78v1h2.78V149.5h-7.79Z" transform="translate(-72.54 -0.75)"/>
    <polygon class="cls-1" points="118.24 142.64 117.95 139.97 106.94 139.97 106.94 158.52 117.95 158.52 118.24 155.85 109.98 155.85 109.98 150.35 117.56 150.35 117.56 147.73 109.98 147.73 109.98 142.64 118.24 142.64"/>
  </g>
</svg>
