<svg id="Layer_1" data-name="Layer 1" xmlns="http://www.w3.org/2000/svg" viewBox="0 0 520.17 285.92">
  <defs>
    <style>
      .cls-1 {
        fill: #ff5056;
      }

      .cls-2 {
        fill: #50c1ac;
      }

      .cls-3 {
        fill: #a1cd40;
      }

      .cls-4 {
        fill: #ffd32b;
      }

      .cls-5 {
        isolation: isolate;
      }
    </style>
  </defs>
  <g>
    <g id="Path_108" data-name="Path 108">
      <path class="cls-1" d="M81.72,218.62q-8.82,0-11.54-2.64-3.33-3.18-3.32-9.28,0-13.59.45-24.15.3-7.77.3-16.3l-.3-69a18.74,18.74,0,0,1,1.36-7.69c.9-2,3.65-3.17,8.22-3.47q13.29-.84,19.25-.83c2.76,0,6.5.13,11.2.41s9.77,2.22,15.21,5.85q12.21,8.22,12.22,23.46a41.53,41.53,0,0,1-2.27,12.34A28.49,28.49,0,0,1,124,140.07a35.35,35.35,0,0,1,14.48,12.53A34,34,0,0,1,144,171.23a37,37,0,0,1-5.28,19.58,49.35,49.35,0,0,1-14.26,15Q106.16,218.62,81.72,218.62Zm19.77-17.73q4.08,0,12.38-5.59,14.55-9.66,14.56-22.71a24.78,24.78,0,0,0-5.36-15.39,25.67,25.67,0,0,0-9.36-8,21.51,21.51,0,0,0-8.82-2.3q-7,0-8.23,4.3a20.81,20.81,0,0,0-.75,5.66q0,21.42.15,33.27a22.44,22.44,0,0,0,1.24,8,4.21,4.21,0,0,0,4.19,2.8Zm-.68-63.84a17.93,17.93,0,0,0,6.49-1.81,21.48,21.48,0,0,0,10.64-9.35,26.23,26.23,0,0,0,3.39-12.83,21.26,21.26,0,0,0-4.22-13.2q-4.9-6.48-14.87-6.49a7.21,7.21,0,0,0-4,.91q-1.66,1.05-1.66,5.51,0,33.64,2,36.36a2.62,2.62,0,0,0,2.26.9Z" transform="translate(-6.93 -5.58)"/>
    </g>
    <g id="Path_109" data-name="Path 109">
      <path class="cls-1" d="M172.71,209.34a54.14,54.14,0,0,1-7.31-.45q-7.47-.9-7.62-14.64-.24-18.7-.68-37-.84-32.22-.83-47c0-4.48,2.31-6.91,6.94-7.32,3.37-.1,6.28-.15,8.75-.15h2.64q7.92.08,7.92,8,0,13-.53,79.9,0,5.06,1.59,7.2c1.06,1.44,2.89,2.2,5.51,2.3,1.4.05,2.84.08,4.3.08q2.87,0,7.62.15,3.17.07,3.17,3c0,2.36-1.29,3.72-3.85,4.07A204.09,204.09,0,0,1,172.71,209.34Z" transform="translate(-6.93 -5.58)"/>
    </g>
    <g id="Path_110" data-name="Path 110">
      <path class="cls-1" d="M240.17,210.24a33.3,33.3,0,0,1-19.81-6q-8.49-6-12.94-17.5a65.8,65.8,0,0,1-4.23-23.76,75.9,75.9,0,0,1,4.68-26.48A53.13,53.13,0,0,1,221.07,116a33.68,33.68,0,0,1,24-9.36,23.88,23.88,0,0,1,18.86,8.53q9.36,10.71,9.35,26.64,0,12.45-15.84,17.27-11.31,3.48-22.56,7-5.35,1.66-6.41,3.7a3.65,3.65,0,0,0-.38,1.81,22,22,0,0,0,.68,5q4.14,17.06,16.45,17.05,15.69,0,21.8-10.19,3.78-6.33,7.93-6.34a3.1,3.1,0,0,1,3,2,4.59,4.59,0,0,1,.38,2,14.87,14.87,0,0,1-2,6.41Q264.38,210.25,240.17,210.24Zm-10.79-53.72q3.39,0,26.48-9.13,5.5-2.19,5.51-7.09a29.1,29.1,0,0,0-1.51-8.68q-2.79-9.06-6.3-11.62a11.33,11.33,0,0,0-6.53-2.57,9.49,9.49,0,0,0-3.24.61q-5.88,2-10.79,9.13-4.08,6-6.11,22a20.06,20.06,0,0,0-.23,2.79,9.21,9.21,0,0,0,.49,3.21,2.11,2.11,0,0,0,2.23,1.32Z" transform="translate(-6.93 -5.58)"/>
    </g>
    <g id="Path_111" data-name="Path 111">
      <path class="cls-1" d="M356.85,121.89q7.2,11.76,8,44.44.15,6.87.15,13.2v12.3q0,8.37-1.28,11.32a6,6,0,0,1-4.38,3.62,29.77,29.77,0,0,1-5.81.45c-2.76,0-4.66,0-5.69,0a31.11,31.11,0,0,1-4.31-.52,4.8,4.8,0,0,1-3.8-3,12.09,12.09,0,0,1-.76-4.53q0-1.74.53-9.21,1.21-17.81,1.21-30.93a111.51,111.51,0,0,0-2-21.65q-2.34-12.08-10-12.07-8.31,0-12.83,12.6-2,5.36-2,15.84t.91,25.5q.6,10.41.6,17.05,0,5.43-1.5,7.77c-1,1.56-3.07,2.56-6.19,3a87,87,0,0,1-10.94.72c-3.52,0-5.69-.93-6.49-2.79a13.73,13.73,0,0,1-1.06-5.66q0-12.53,1.06-80.73.07-5.44,3.55-6.76a28,28,0,0,1,9.58-1.32q7.25,0,9.35,8.38c.55,2.21,1.18,3.32,1.89,3.32s1.66-1.06,3-3.17q5.88-8.91,20.75-8.9Q349.64,110.12,356.85,121.89Z" transform="translate(-6.93 -5.58)"/>
    </g>
    <g id="Path_112" data-name="Path 112">
      <path class="cls-1" d="M393.33,213.19q-5.74,0-7.92-2.19-2.81-2.87-2.87-9.58-.23-14.71-.23-29.35,0-12.9.23-25.88.22-13.35.22-26.48a70.65,70.65,0,0,1,.65-11.81,5,5,0,0,1,4-4,35.34,35.34,0,0,1,8.52-.75q19.62,0,32.3,7.09a43,43,0,0,1,17.47,17.16,48.31,48.31,0,0,1,5.69,23.28,62.3,62.3,0,0,1-6.94,28.89,64.2,64.2,0,0,1-19.16,22.56A56.78,56.78,0,0,1,397.48,213,39.73,39.73,0,0,1,393.33,213.19Zm9.73-14.26q2.87,0,7.47-6.26a76.57,76.57,0,0,0,10-18.87A93.2,93.2,0,0,0,426,150.94a64.66,64.66,0,0,0,.45-7.62q0-15.39-7.39-23.61a20.63,20.63,0,0,0-9.81-5.89,25.38,25.38,0,0,0-6.19-1,4.68,4.68,0,0,0-3.77,1.43q-1.43,1.67-1.43,6.27,0,2.26.75,17.65,1.2,24.52,1.21,49.12v3.17q0,8.45,3.24,8.44Z" transform="translate(-6.93 -5.58)"/>
    </g>
    <g id="Path_113" data-name="Path 113">
      <path class="cls-1" d="M491.11,210.24a40.77,40.77,0,0,1-23.84-7.17q-6.64-4.53-6.64-7.85a4.82,4.82,0,0,1,1.28-3.5,4.93,4.93,0,0,1,3.7-1.33A11.18,11.18,0,0,1,472,193a29.82,29.82,0,0,0,13,5.5,33.84,33.84,0,0,0,6.11.61,15.94,15.94,0,0,0,9.81-3.1,7.93,7.93,0,0,0,3-6.79q0-5.06-4.83-9.88A38.38,38.38,0,0,0,488.24,172q-18.71-9.13-22.94-16.37a31.65,31.65,0,0,1-4.52-16.3A34.8,34.8,0,0,1,465,122.46a34,34,0,0,1,12.15-12.76q7.94-4.94,19.4-4.94,12.06,0,23.23,8.07c1.82,1.31,2.72,2.67,2.72,4.07a8,8,0,0,1-1.24,4.19,4,4,0,0,1-3.59,2.08,2.92,2.92,0,0,1-1.89-.91q-6-5.58-16.07-5.58A23.29,23.29,0,0,0,488,119.89a10.27,10.27,0,0,0-5.62,9.46q0,10.65,22.37,20.68t22.37,26.78q0,14.26-9.54,23.84T491.11,210.24Z" transform="translate(-6.93 -5.58)"/>
    </g>
    <g id="Path_114" data-name="Path 114">
      <path class="cls-1" d="M153.47,80.73C159.19,88.36,170,87,178.05,84.6a57.54,57.54,0,0,0,13.1-5.82c5.65-3.33,9.6-2.17,15.54-1a5.63,5.63,0,0,0,.69.14,5.9,5.9,0,0,0,.83.11c13.44,1.64,29.5-4.06,32.43-18.9,3-15.3-9.7-29.19-24.28-31.38-18.17-2.73-33.8,8.35-46.41,20.07C162.15,55.11,144.14,68.28,153.47,80.73Z" transform="translate(-6.93 -5.58)"/>
    </g>
    <g id="Path_115" data-name="Path 115">
      <path class="cls-2" d="M113,71.14a8.24,8.24,0,0,0,3.55.42c7.84-1.19,7.55-12.59,6.43-18.11-1.36-6.67-3.61-13.44-8.37-18.3S102.05,27.88,96,31c-4.5,2.31-7.27,7.31-7.58,12.37C87.6,56.79,101,67.5,112.69,71.06Z" transform="translate(-6.93 -5.58)"/>
    </g>
    <g id="Path_116" data-name="Path 116">
      <path class="cls-3" d="M272.9,88.63a56.23,56.23,0,0,0,15.22,5.53c30.92,6.61,58.17-9.75,88.73-7.64,20.13,1.38,37.93,9.79,58.74,5.14,13-2.9,21.24-10.59,22.3-19.3,1.13-9.25-6-17.52-15.54-24.06-.29-.22-.6-.43-.91-.62a12.7,12.7,0,0,0-1.13-.65c-16.53-9.54-38.77-14.35-60.84-11.43-15.26,2-29.18,10.82-45.37,9.81-12.05-.75-16.39-8.1-18.88-14.72-3.07-8.15-3.46-16.81-15.41-22C289.36,4.2,275,4.41,266.21,10.34c-8.5,5.71-11.92,14.2-14.27,21.74C246.24,50.31,249.3,75.77,272.9,88.63Z" transform="translate(-6.93 -5.58)"/>
    </g>
    <g id="Path_117" data-name="Path 117">
      <path class="cls-3" d="M332.7,33.16l.05,0A10.52,10.52,0,0,0,345,32.75a14.47,14.47,0,0,0,5.43-10.42c.2-2.47-.22-5.16-2-6.91-2.68-2.69-7.3-3.21-10.81-2.19-4.77,1.4-6.1,5.7-7.27,10.08-.83,3.15-1,6.78,1.53,9.22A4.89,4.89,0,0,0,332.7,33.16Z" transform="translate(-6.93 -5.58)"/>
    </g>
    <g id="Path_118" data-name="Path 118">
      <path class="cls-4" d="M499.46,45c-6-8.15-21.58-9.51-25.09,1.81-1.47,4.75.26,9.93-.47,14.85-1.29,8.64-15,18.64-10.09,27.45,4.25,7.61,17,3.35,22.77.19,7.31-4,13.62-12.29,16.71-19.89C506.75,60.83,504.7,52.1,499.46,45Z" transform="translate(-6.93 -5.58)"/>
    </g>
    <g id="Path_119" data-name="Path 119">
      <path class="cls-4" d="M110.93,245.08a22.11,22.11,0,0,0-15.55-9.44C81.84,234.29,59.65,253,53,234.11c-8-22.88,4.21-48.39-5.15-70.77a15.45,15.45,0,0,0-4.32-6.28c-4.14-3.29-10.22-2.79-15.09-.74a33.56,33.56,0,0,0-16.39,15.82c-7.84,15.38-5.26,34.51-1.68,50.7C18.65,260,48.5,300.36,91.7,284.67c12.41-4.51,23.87-15.61,23.11-28.78A21,21,0,0,0,110.93,245.08Z" transform="translate(-6.93 -5.58)"/>
    </g>
    <g id="Path_120" data-name="Path 120">
      <path class="cls-2" d="M268.27,226.54a15,15,0,0,0-1.41-3,12.19,12.19,0,0,0-5.39-4.73,12.79,12.79,0,0,0-9.9-.41c-7,2.58-12.34,10.75-17.95,17.39-7,8.32-12.29,10.31-19.83,2-5.38-5.95-11.72-10.06-18.25-10-6.33,0-15.44,4.17-16.71,15.71a40.12,40.12,0,0,0,1.86,15.84c5.05,16.55,16,27.09,27.25,30.41a42.35,42.35,0,0,0,37.2-6.38c9.79-7,20.86-22,23.88-39.18C270.05,238.35,270.1,231.62,268.27,226.54Z" transform="translate(-6.93 -5.58)"/>
    </g>
    <g id="Path_121" data-name="Path 121">
      <path class="cls-4" d="M152,224.26c-5.21-2.11-11.82,1.53-15.29,6.94A51.54,51.54,0,0,0,128.83,256c-.3,9.25,9.31,17.61,18.24,13,10.09-5.25,11.76-21.59,11.59-31.54a19.18,19.18,0,0,0-1.12-7C156.18,227.14,154.2,225.17,152,224.26Z" transform="translate(-6.93 -5.58)"/>
    </g>
    <g id="Path_122" data-name="Path 122">
      <path class="cls-1" d="M198.55,85.73l-.49-.21c-4.95-1.84-8.95,3.35-8.54,8a8.54,8.54,0,0,0,3.36,6,6.26,6.26,0,0,0,6.28.93,6.51,6.51,0,0,0,3.28-4.73C203.14,92.2,202.18,87.45,198.55,85.73Z" transform="translate(-6.93 -5.58)"/>
    </g>
    <g id="Path_123" data-name="Path 123">
      <path class="cls-2" d="M128.39,53.81c.3.58.61,1.15.94,1.72C132,60,139.2,63.77,141.9,56.86a13.64,13.64,0,0,0,.7-4.57,28.64,28.64,0,0,0-1.55-11.46c-1.45-3.6-4.3-6.81-8-7.86a6.7,6.7,0,0,0-5.85.78c-2.39,1.8-2.67,5.27-2.34,8.24A34.08,34.08,0,0,0,128.39,53.81Z" transform="translate(-6.93 -5.58)"/>
    </g>
    <g id="Group_146" data-name="Group 146">
      <g id="Group_145" data-name="Group 145">
        <g id="Path_124" data-name="Path 124">
          <path class="cls-1" d="M46.4,95.65a10.38,10.38,0,0,1-.7,1.69,1.68,1.68,0,0,1-.74.73,1.79,1.79,0,0,1-1.27,0Q34.48,95,23,90.37q-.57-.23-2.76-.93a2,2,0,0,0-2.49.92,36.47,36.47,0,0,0-1.9,4.35c-.33.87-.88,1.18-1.64.93-.45-.15-.7-.37-.75-.69a3.54,3.54,0,0,1,.09-1.21,64,64,0,0,1,1.72-6.24l2-6.23q1.54-4.76,2.37-6.6a1.31,1.31,0,0,1,1.64-.86l.14.06a1,1,0,0,1,.8,1.22l-.06.17q-.68,2.55-1.09,5.15c-.18,1.31-.12,2.12.19,2.42a2.76,2.76,0,0,0,1.08.58Q31,86.1,34,87.07q5.54,1.8,11.06,3.76a2.55,2.55,0,0,1,1.77,1.56A6.07,6.07,0,0,1,46.4,95.65Z" transform="translate(-6.93 -5.58)"/>
        </g>
        <g id="Path_125" data-name="Path 125">
          <path class="cls-1" d="M46.25,86.43a2.74,2.74,0,0,1-1.17.91c-.42.14-1.12-.19-2.11-1L38.86,83q-5.74-4.68-9.34-7.92a6,6,0,0,1-1.43-1.61c-.29-.57.07-1.47,1.06-2.68,1.4-1.72,2.4-2.56,3-2.5a2.23,2.23,0,0,1,1.08.55l4.1,3.29a2.4,2.4,0,0,0,1,.57q.39.06,1-.66l.71-.89c.65-.82.85-1.43.59-1.84a2.83,2.83,0,0,0-.7-.8l-4.91-4a13.94,13.94,0,0,1-1.94-1.74.67.67,0,0,1,0-.67,6.71,6.71,0,0,1,.9-1.28,1.22,1.22,0,0,1,.73-.5,1,1,0,0,1,.73.27L45.34,69q4,3.33,8.49,7.21c.45.39.64.73.56,1a4,4,0,0,1-.75,1.2,2.28,2.28,0,0,1-.78.7c-.21.09-.52,0-.92-.36q-2.76-2.23-8.4-7.12a1,1,0,0,0-.49-.26c-.25,0-.75.41-1.49,1.32s-1.05,1.55-1,2a1.87,1.87,0,0,0,.71,1l5.54,4.81A9.39,9.39,0,0,1,48.42,82a1.16,1.16,0,0,1,.09,1.24,12.58,12.58,0,0,1-1.32,1.92q-.28.35-.51.66A5.64,5.64,0,0,1,46.25,86.43Z" transform="translate(-6.93 -5.58)"/>
        </g>
        <g id="Path_126" data-name="Path 126">
          <path class="cls-1" d="M63.88,72.15A7.88,7.88,0,0,1,59,72.9a9,9,0,0,1-4.61-2.44A15.84,15.84,0,0,1,51,65.77a18.39,18.39,0,0,1-1.73-6.2A12.75,12.75,0,0,1,50,53.8a8,8,0,0,1,4.21-4.5,5.69,5.69,0,0,1,5-.12A9.38,9.38,0,0,1,64,54q1.29,2.68-1.63,5.37-2.09,1.92-4.14,3.85c-.66.61-1,1.09-1,1.46a.91.91,0,0,0,.1.43,5.14,5.14,0,0,0,.67,1q2.65,3.25,5.31,2,3.38-1.62,3.65-4.45.16-1.76,1-2.19a.74.74,0,0,1,.86.11,1,1,0,0,1,.28.38,3.51,3.51,0,0,1,.23,1.6A9.22,9.22,0,0,1,63.88,72.15ZM56,61.68A36.6,36.6,0,0,0,60.77,57a1.78,1.78,0,0,0,.46-2.1A6.93,6.93,0,0,0,60,53.15a5.48,5.48,0,0,0-2.56-1.86,2.73,2.73,0,0,0-1.67.12,2.3,2.3,0,0,0-.64.47A5.41,5.41,0,0,0,53.74,55a13.07,13.07,0,0,0,1,5.38,4.29,4.29,0,0,0,.23.63,2.21,2.21,0,0,0,.44.64.51.51,0,0,0,.62.06Z" transform="translate(-6.93 -5.58)"/>
        </g>
      </g>
    </g>
    <g id="Smoothie_Bar" data-name="Smoothie Bar" class="cls-5">
      <g class="cls-5">
        <path class="cls-1" d="M340.37,250.93a9.27,9.27,0,0,1-5.93-1.76,1.56,1.56,0,0,1-.7-1.26.89.89,0,0,1,.26-.65.94.94,0,0,1,.68-.26,1.64,1.64,0,0,1,.72.2,9,9,0,0,0,4.21,1q5,0,5-2.84c0-1.19-.93-2.2-2.79-3s-3-1.44-3.94-1.94a7.67,7.67,0,0,1-4-5.06,6.66,6.66,0,0,1-.18-1.53,7,7,0,0,1,3.21-6.13,8.66,8.66,0,0,1,5-1.39,8,8,0,0,1,5.43,1.76,1.62,1.62,0,0,1,.63,1.26.9.9,0,0,1-.24.65.82.82,0,0,1-.61.26,1.42,1.42,0,0,1-.67-.2,7.63,7.63,0,0,0-3.84-1,4.27,4.27,0,0,0-3.6,1.34,2.94,2.94,0,0,0-.63,1.83,3.65,3.65,0,0,0,.16,1,4,4,0,0,0,1.65,2.22,27.79,27.79,0,0,0,3.41,1.9,10.63,10.63,0,0,1,4.37,3.5,5.76,5.76,0,0,1,1,3.19,6.3,6.3,0,0,1-3.38,5.57A9.54,9.54,0,0,1,340.37,250.93Z" transform="translate(-6.93 -5.58)"/>
        <path class="cls-1" d="M360.23,248.48a4.11,4.11,0,0,1-.75-.07c-.26,0-.43-.24-.51-.61a6,6,0,0,1-.07-1.07q0-1.44.4-9.52,0-.45,0-.87c0-1.88-.38-2.82-1.12-2.82-.53,0-1,.45-1.49,1.33a7.1,7.1,0,0,0-.68,3.25l0,7a8.13,8.13,0,0,1-.22,2.13c-.15.54-.74.8-1.77.8a5.93,5.93,0,0,1-2.55-.33,1.08,1.08,0,0,1-.52-1c0-.2,0-.43,0-.7q.16-3.27.25-5.84.12-3.83.33-7.66a1.32,1.32,0,0,1,1.09-1.37,7.93,7.93,0,0,1,1.54-.14c.64,0,1.06.43,1.28,1.29.07.29.16.43.27.43s.24-.13.44-.39a4.49,4.49,0,0,1,3.47-2.09,3,3,0,0,1,3.3,2.17c.12.36.24.55.37.55s.28-.16.46-.47a4,4,0,0,1,3.71-2.15c2.78,0,4.31,2.1,4.61,6.32.08,1.25.12,2.82.12,4.73,0,1.2,0,2.53,0,4a2.34,2.34,0,0,1-.49,1.7,1.81,1.81,0,0,1-1.18.32,7.13,7.13,0,0,1-1-.07,1.32,1.32,0,0,1-1.26-1.15,11.07,11.07,0,0,1-.15-1.87c0-.85,0-1.68.06-2.5s.07-1.71.07-2.67a16,16,0,0,0-.37-4.08c-.25-.8-.71-1.21-1.39-1.21a2.2,2.2,0,0,0-1.95,1.37,6.09,6.09,0,0,0-.73,2.93q0,4.77.13,8.46v.2c0,.61-.13,1-.39,1.19A7.31,7.31,0,0,1,360.23,248.48Z" transform="translate(-6.93 -5.58)"/>
        <path class="cls-1" d="M380.9,247.71a7.72,7.72,0,0,1-2.62-.57,5.74,5.74,0,0,1-2.74-2.63,8.44,8.44,0,0,1-1-4.39c0-.32,0-.64,0-1a13,13,0,0,1,1.77-5.87,6.93,6.93,0,0,1,3.37-2.9,5.36,5.36,0,0,1,1.89-.36q3.18,0,5,3.33a11.62,11.62,0,0,1,1.15,5.55,10.11,10.11,0,0,1-1.48,5.88A6.27,6.27,0,0,1,380.9,247.71Zm0-4a3.22,3.22,0,0,0,2.32-1.12,6,6,0,0,0,1.39-3.27,9.44,9.44,0,0,0,.15-1.6,6.23,6.23,0,0,0-.37-2.23c-.59-1.48-1.5-2.22-2.75-2.22a3.39,3.39,0,0,0-3,2.14,8.24,8.24,0,0,0-.76,3.87,5.22,5.22,0,0,0,.88,3.36A2.66,2.66,0,0,0,380.87,243.67Z" transform="translate(-6.93 -5.58)"/>
        <path class="cls-1" d="M396.19,247.71a7.67,7.67,0,0,1-2.61-.57,5.7,5.7,0,0,1-2.74-2.63,8.44,8.44,0,0,1-1-4.39c0-.32,0-.64,0-1a12.85,12.85,0,0,1,1.78-5.87,6.89,6.89,0,0,1,3.37-2.9,5.26,5.26,0,0,1,1.88-.36q3.18,0,5,3.33A11.51,11.51,0,0,1,403,238.9a10.18,10.18,0,0,1-1.47,5.88A6.27,6.27,0,0,1,396.19,247.71Zm0-4a3.19,3.19,0,0,0,2.32-1.12,6,6,0,0,0,1.4-3.27,10.5,10.5,0,0,0,.14-1.6,6,6,0,0,0-.37-2.23c-.58-1.48-1.5-2.22-2.75-2.22a3.37,3.37,0,0,0-3,2.14,8.11,8.11,0,0,0-.77,3.87,5.15,5.15,0,0,0,.89,3.36A2.64,2.64,0,0,0,396.16,243.67Z" transform="translate(-6.93 -5.58)"/>
        <path class="cls-1" d="M413.77,250.36q-6.75,0-7.1-7.17c0-.4,0-1.27,0-2.62,0-.79-.28-1.18-.85-1.18-.78,0-1.18-.34-1.18-1s.31-.79.92-.81a2.15,2.15,0,0,0,1-.21c.23-.13.36-.47.39-1l.24-5a2.49,2.49,0,0,1,.48-1.51c.3-.36,1-.53,2-.53a8.77,8.77,0,0,1,1.74.12,1,1,0,0,1,.73.63,2.81,2.81,0,0,1,.12.92l0,5a2.29,2.29,0,0,0,.16,1c.16.32.63.51,1.42.57a1.46,1.46,0,0,1,1.15.52.94.94,0,0,1,.15.5c0,.36-.39.57-1.17.64l-.77,0a1.57,1.57,0,0,0-.91.36c-.24.21-.37.84-.37,1.91l0,1.56c0,2.7.8,4.48,2.37,5.32a1.15,1.15,0,0,1,.73,1Q415,250.36,413.77,250.36Z" transform="translate(-6.93 -5.58)"/>
        <path class="cls-1" d="M418.19,248.59a2.12,2.12,0,0,1-1.13-.27c-.3-.18-.44-.77-.44-1.77V242.4q0-5.84.2-9.61a4.62,4.62,0,0,1,.27-1.68c.2-.45.92-.68,2.15-.68,1.75,0,2.76.2,3,.6a1.74,1.74,0,0,1,.2.93l0,4.13a2,2,0,0,0,.15.91c.11.18.4.27.9.27h.89c.82,0,1.29-.2,1.42-.56a2.43,2.43,0,0,0,.14-.82l0-5a11.77,11.77,0,0,1,.1-2,.55.55,0,0,1,.39-.36,6.23,6.23,0,0,1,1.23-.08,1,1,0,0,1,.67.2.78.78,0,0,1,.19.58l-.19,10.18q0,4.08-.19,8.74c0,.47-.13.76-.34.84a2.9,2.9,0,0,1-1.11.14,1.75,1.75,0,0,1-.8-.13c-.16-.08-.24-.33-.24-.73q0-2.81.18-8.65a1,1,0,0,0-.08-.43c-.11-.17-.62-.25-1.55-.25s-1.46.13-1.67.38a1.48,1.48,0,0,0-.26.92l-.18,5.76a7.76,7.76,0,0,1-.18,1.74.89.89,0,0,1-.71.66,9.08,9.08,0,0,1-1.82.15l-.66,0Z" transform="translate(-6.93 -5.58)"/>
        <path class="cls-1" d="M434.35,248.44a4.2,4.2,0,0,1-1.53-.22c-.34-.14-.51-.52-.51-1.15,0-2.73.05-4.92.06-6.59q0-5.13,0-6.42a1.53,1.53,0,0,1,.2-.77c.13-.19.51-.31,1.17-.35s1,0,1.36,0a6.8,6.8,0,0,1,1,.06.64.64,0,0,1,.56.4,3.06,3.06,0,0,1,.14,1.06c0,1.06,0,2.34-.1,3.85s-.1,3-.1,4.55a36.17,36.17,0,0,0,.21,3.91,4.38,4.38,0,0,1,0,.47,1.44,1.44,0,0,1-.18.75,1,1,0,0,1-.74.39C435.58,248.38,435.06,248.42,434.35,248.44Zm.2-17a1.81,1.81,0,0,1-1.8-.86,1.83,1.83,0,0,1-.23-.87c0-1.45.86-2.18,2.57-2.18a1.92,1.92,0,0,1,1.37.42,1.37,1.37,0,0,1,.44,1.06,2.38,2.38,0,0,1-.66,1.78A2.28,2.28,0,0,1,434.55,231.45Z" transform="translate(-6.93 -5.58)"/>
        <path class="cls-1" d="M446.2,249.24a6.28,6.28,0,0,1-3.72-1.13,7.05,7.05,0,0,1-2.43-3.29,12.35,12.35,0,0,1-.8-4.46,14.43,14.43,0,0,1,.88-5,10.08,10.08,0,0,1,2.48-3.84,6.35,6.35,0,0,1,4.51-1.76,4.52,4.52,0,0,1,3.55,1.6,7.36,7.36,0,0,1,1.75,5q0,2.34-3,3.24L445.21,241a2.06,2.06,0,0,0-1.21.7.75.75,0,0,0-.07.34,4.47,4.47,0,0,0,.13.93q.78,3.21,3.09,3.21c2,0,3.33-.64,4.1-1.92.47-.79,1-1.19,1.49-1.19a.57.57,0,0,1,.56.37.84.84,0,0,1,.07.37A2.71,2.71,0,0,1,453,245,7.23,7.23,0,0,1,446.2,249.24Zm-2-10.09a28.28,28.28,0,0,0,5-1.71,1.4,1.4,0,0,0,1-1.34,5.42,5.42,0,0,0-.28-1.63,4.32,4.32,0,0,0-1.18-2.18,2.14,2.14,0,0,0-1.23-.48,1.92,1.92,0,0,0-.61.11,4.3,4.3,0,0,0-2,1.72,10.2,10.2,0,0,0-1.14,4.14,3.49,3.49,0,0,0,0,.52,1.51,1.51,0,0,0,.1.6A.39.39,0,0,0,444.17,239.15Z" transform="translate(-6.93 -5.58)"/>
        <path class="cls-1" d="M464.07,250.82a3.26,3.26,0,0,1-2.16-.5,2.29,2.29,0,0,1-.63-1.74c0-1.7,0-3.22.09-4.54,0-1,.05-2,.05-3.06l-.05-13a3.54,3.54,0,0,1,.25-1.44c.17-.38.69-.6,1.55-.65,1.66-.11,2.87-.16,3.61-.16.52,0,1.22,0,2.11.08a5.85,5.85,0,0,1,2.85,1.1,5,5,0,0,1,2.3,4.4,7.62,7.62,0,0,1-.43,2.32,5.25,5.25,0,0,1-1.6,2.39,6.68,6.68,0,0,1,2.72,2.35,6.44,6.44,0,0,1,1,3.5,7,7,0,0,1-1,3.68,9.56,9.56,0,0,1-2.68,2.82A13.66,13.66,0,0,1,464.07,250.82Zm3.72-3.33a5,5,0,0,0,2.32-1.05c1.83-1.21,2.74-2.64,2.74-4.27a4.67,4.67,0,0,0-1-2.89,4.78,4.78,0,0,0-1.76-1.51,4,4,0,0,0-1.65-.43c-.88,0-1.4.27-1.55.8a4.13,4.13,0,0,0-.14,1.07q0,4,0,6.25A4.36,4.36,0,0,0,467,247,.8.8,0,0,0,467.79,247.49Zm-.13-12a3.38,3.38,0,0,0,1.22-.34,4,4,0,0,0,2-1.75,5,5,0,0,0,.64-2.41,4,4,0,0,0-.8-2.48,3.25,3.25,0,0,0-2.79-1.22,1.3,1.3,0,0,0-.75.17c-.21.13-.31.47-.31,1,0,4.22.12,6.49.37,6.83A.46.46,0,0,0,467.66,235.49Z" transform="translate(-6.93 -5.58)"/>
        <path class="cls-1" d="M489,249c-1,0-1.58-.24-1.67-.71,0-.21-.07-1.85-.09-4.91a.7.7,0,0,0-.07-.41.43.43,0,0,0-.28-.07l-.39,0-.62.06c-1.07.08-2,.18-2.7.28-.49.07-1.06.13-1.73.2-.51,0-.81.16-.9.37a13.9,13.9,0,0,0-.15,2.75.7.7,0,0,1-.57.66,3,3,0,0,1-1,.19c-.71,0-1.06-.22-1.06-.64,0-1,0-2.08.07-3.15.08-1.72.22-3.44.41-5.18a25,25,0,0,1,1-4.9,7.06,7.06,0,0,1,2.34-3.44,5.44,5.44,0,0,1,3.46-1.15,5.18,5.18,0,0,1,2.48.64,5.89,5.89,0,0,1,2.51,2.78,19,19,0,0,1,1.67,5.37,60.48,60.48,0,0,1,.79,9.31,1.43,1.43,0,0,1-.46,1.25,4.63,4.63,0,0,1-2,.59A8.15,8.15,0,0,1,489,249Zm-7.16-7.19a25.12,25.12,0,0,0,2.54-.13l1.46-.18c.82-.12,1.23-.54,1.23-1.28a4.29,4.29,0,0,0,0-.49c0-.24-.07-.72-.11-1.45q-.35-7-2.17-7c-.56,0-1.17.47-1.81,1.43a10.12,10.12,0,0,0-1,2,13.06,13.06,0,0,0-.67,2.45c-.13.79-.22,1.41-.28,1.85-.11,1-.17,1.7-.17,1.95s.07.58.22.68A1.67,1.67,0,0,0,481.79,241.76Z" transform="translate(-6.93 -5.58)"/>
        <path class="cls-1" d="M497.43,248.76a4.26,4.26,0,0,1-2-.33,1.09,1.09,0,0,1-.53-1c0-.2,0-.43,0-.7q.17-3.27.26-6.55.11-3.83.32-8.52a1.32,1.32,0,0,1,1.09-1.36,7.2,7.2,0,0,1,1.39-.14c.64,0,1.11.72,1.43,2.14.07.29.16.43.27.43s.22-.14.39-.43q1.59-2.73,4-2.73a1.44,1.44,0,0,1,.82.24,1.11,1.11,0,0,1,.44,1v.3c0,.69-.58,1.17-1.74,1.45-1.73.41-2.88,1.93-3.43,4.56a23.75,23.75,0,0,0-.57,5c0,.65,0,1.27.08,1.89.12,1.23.17,2.19.17,2.88C499.79,248.13,499,248.76,497.43,248.76Z" transform="translate(-6.93 -5.58)"/>
      </g>
    </g>
    <g id="Path_127" data-name="Path 127">
      <path class="cls-1" d="M316.62,232.88a20.19,20.19,0,0,0-9-4.81,17.2,17.2,0,0,0-11.2.94c-3.42,1.69-6.07,5.2-6.06,9,0,7.16,8.8,14,14.62,16.8,3.55,1.72,7.86,2.31,11.42.62,4.64-2.21,6.91-8,5.93-13A17.89,17.89,0,0,0,316.62,232.88Z" transform="translate(-6.93 -5.58)"/>
    </g>
    <g id="Path_128" data-name="Path 128">
      <path class="cls-1" d="M294.91,252a9.57,9.57,0,0,0-2.61-2.26c-3.07-1.8-7.51-1.4-9.65,1.45-2.36,3.16-1.43,8.18-1.48,11.91,0,2.5-.12,5,1.07,7.31,2.82,5.43,10.86,6.52,14.22.88,2.07-3.46,1.94-8.93,1.29-12.77A13.92,13.92,0,0,0,294.91,252Z" transform="translate(-6.93 -5.58)"/>
    </g>
  </g>
</svg>
