<svg id="Layer_1" data-name="Layer 1" xmlns="http://www.w3.org/2000/svg" viewBox="0 0 160.71 300">
  <defs>
    <style>
      .cls-1 {
        fill: #fc3645;
      }
    </style>
  </defs>
  <g>
    <path class="cls-1" d="M205.18,53.42,218.9,9.21a5.3,5.3,0,0,0-3.31-6.36L206.71.18C204-.63,201.07,1.32,200,4.63L184.9,53.42H69.65l19.56,238A8.64,8.64,0,0,0,97.77,300H202.23a8.64,8.64,0,0,0,8.56-8.58l19.56-238Zm-.13-47.29a2.36,2.36,0,0,1,.51-.91l8.23,2.47a1.21,1.21,0,0,1,.05.18L199.7,53.42h-9.33Zm.51,285v.21a3.44,3.44,0,0,1-3.32,3.54H97.77a3.44,3.44,0,0,1-3.32-3.54L75.33,58.56H224.67Z" transform="translate(-69.65 0)"/>
    <polygon class="cls-1" points="32.38 152.33 32.32 152.33 25.76 139.21 21.31 139.21 21.31 160.23 24.69 160.23 24.66 143.63 24.72 143.63 32.05 158.03 32.59 158.03 39.92 143.63 39.98 143.63 39.95 160.23 43.33 160.23 43.33 139.21 38.88 139.21 32.38 152.33"/>
    <polygon class="cls-1" points="61 142.24 60.67 139.21 48.2 139.21 48.2 160.23 60.67 160.23 61 157.2 51.65 157.2 51.65 150.96 60.23 150.96 60.23 148 51.65 148 51.65 142.24 61 142.24"/>
    <path class="cls-1" d="M141,139.21h-6.11v21H141c7.57,0,12.06-3.92,12.06-10.6S148.84,139.21,141,139.21Zm-.32,17.9h-2.35V142.33h2.35c6,0,8.79,2.25,8.79,7.24C149.47,154.76,146.62,157.11,140.68,157.11Z" transform="translate(-69.65 0)"/>
    <rect class="cls-1" x="87.3" y="139.21" width="3.44" height="21.02"/>
    <path class="cls-1" d="M178.86,151.5c0,4.24-1.58,6.06-5.17,6.06s-5.13-1.82-5.13-6.06V139.21h-3.45v12.62c0,5.87,2.73,9,8.58,9,5.67,0,8.61-3.27,8.61-9V139.21h-3.44Z" transform="translate(-69.65 0)"/>
    <polygon class="cls-1" points="134.95 139.21 128.45 152.33 128.39 152.33 121.83 139.21 117.37 139.21 117.37 160.23 120.76 160.23 120.73 143.63 120.79 143.63 128.12 158.03 128.65 158.03 135.99 143.63 136.04 143.63 136.01 160.23 139.4 160.23 139.4 139.21 134.95 139.21"/>
  </g>
</svg>
