<svg id="Layer_1" data-name="Layer 1" xmlns="http://www.w3.org/2000/svg" viewBox="0 0 168.67 298.37">
  <defs>
    <style>
      .cls-1 {
        fill: #e1ecbd;
      }

      .cls-2 {
        fill: #fc3645;
      }
    </style>
  </defs>
  <g>
    <path class="cls-1" d="M209.3,53.94,223,10a5.29,5.29,0,0,0-3.3-6.33L210.83,1c-2.71-.81-5.62,1.13-6.64,4.42L189.13,53.94H74.5L94,290.65a8.59,8.59,0,0,0,8.52,8.53H206.36a8.59,8.59,0,0,0,8.52-8.53L234.34,53.94Z" transform="translate(-65.66 -0.82)"/>
    <path class="cls-2" d="M200.46,53.94l13.65-44a5.29,5.29,0,0,0-3.3-6.33L202,1c-2.7-.81-5.61,1.13-6.63,4.42L180.29,53.94H65.66L85.12,290.65a8.59,8.59,0,0,0,8.52,8.53H197.52a8.59,8.59,0,0,0,8.52-8.53L225.5,53.94Zm-.13-47a2.39,2.39,0,0,1,.51-.9L209,8.46a1.89,1.89,0,0,1,.06.18L195,53.94h-9.28Zm.51,283.42v.21a3.43,3.43,0,0,1-3.31,3.52H93.64a3.43,3.43,0,0,1-3.31-3.52l-19-231.48H219.85Z" transform="translate(-65.66 -0.82)"/>
    <g>
      <polygon class="cls-2" points="32.2 151.5 32.14 151.5 25.62 138.45 21.19 138.45 21.19 159.35 24.56 159.35 24.53 142.85 24.59 142.85 31.88 157.17 32.41 157.17 39.7 142.85 39.76 142.85 39.73 159.35 43.1 159.35 43.1 138.45 38.67 138.45 32.2 151.5"/>
      <polygon class="cls-2" points="60.66 141.46 60.34 138.45 47.94 138.45 47.94 159.35 60.34 159.35 60.66 156.34 51.37 156.34 51.37 150.14 59.9 150.14 59.9 147.19 51.37 147.19 51.37 141.46 60.66 141.46"/>
      <path class="cls-2" d="M136.63,139.27h-6.08v20.9h6.08c7.53,0,12-3.9,12-10.54S144.43,139.27,136.63,139.27Zm-.32,17.8H134v-14.7h2.33c6,0,8.74,2.24,8.74,7.2C145.05,154.74,142.21,157.07,136.31,157.07Z" transform="translate(-65.66 -0.82)"/>
      <rect class="cls-2" x="86.83" y="138.45" width="3.42" height="20.9"/>
      <path class="cls-2" d="M174.28,151.49c0,4.22-1.57,6-5.14,6s-5.11-1.8-5.11-6V139.27h-3.42v12.55c0,5.84,2.71,8.91,8.53,8.91,5.64,0,8.56-3.25,8.56-8.94V139.27h-3.42Z" transform="translate(-65.66 -0.82)"/>
      <polygon class="cls-2" points="134.21 138.45 127.75 151.5 127.69 151.5 121.16 138.45 116.73 138.45 116.73 159.35 120.1 159.35 120.07 142.85 120.13 142.85 127.42 157.17 127.95 157.17 135.25 142.85 135.31 142.85 135.28 159.35 138.64 159.35 138.64 138.45 134.21 138.45"/>
    </g>
  </g>
</svg>
