<svg id="Layer_1" data-name="Layer 1" xmlns="http://www.w3.org/2000/svg" viewBox="0 0 211.53 292.12">
  <defs>
    <style>
      .cls-1 {
        fill: #d7ecaa;
      }

      .cls-2 {
        fill: #ff5056;
        stroke: #ff5056;
        stroke-miterlimit: 10;
      }
    </style>
  </defs>
  <g>
    <path class="cls-1" d="M378.46,174.08c-34.28-25.63-83.29-13.56-104.16,19.46a84.72,84.72,0,0,0-11.4,30.3,115.88,115.88,0,0,0-1.77,19.53c-.18,20.36-.25,42.31-12.77,58.29-11.4,14.54-26.84,26.88-35.3,43.41-14.36,28.05-7.24,66.31,20,86.71,23,17.18,56.93,18.76,80.13,3.74,14.95-9.68,24.58-25.09,29.27-41.73,4.81-17.12,2.59-34.79,4.4-52.32,2.09-20.19,17.29-36,31.3-50.81a110.76,110.76,0,0,0,20.58-29.55C412,232.52,406.14,194.78,378.46,174.08Z" transform="translate(-193.99 -153.69)"/>
    <g>
      <path class="cls-2" d="M370.73,168.48c-16.29-12.19-36.67-16.8-57.35-13-21,3.88-39.26,15.92-50.08,33.05a86.48,86.48,0,0,0-11.72,31.1,117.81,117.81,0,0,0-1.8,19.91v.55c-.17,20.23-.35,41.14-12.29,56.36-4,5.14-8.69,10.13-13.19,15-8.24,8.82-16.77,17.94-22.33,28.82-15.39,30-6.3,69.38,20.68,89.57a75.34,75.34,0,0,0,44.84,14.53,69.81,69.81,0,0,0,37.89-10.71c14.28-9.24,25-24.52,30.22-43,3.14-11.16,3.36-22.62,3.58-33.71.12-6.24.24-12.7.9-19,2-19.24,16.39-34.41,30.31-49.08l.38-.4a113.28,113.28,0,0,0,21-30.16C404.37,230.9,401.21,191.27,370.73,168.48Zm16.89,87.89a108.68,108.68,0,0,1-20.16,28.94l-.37.4c-13.78,14.51-29.39,31-31.55,51.74-.66,6.48-.79,13-.92,19.37-.22,11.3-.42,22-3.41,32.57-4.9,17.43-14.95,31.8-28.3,40.44-22.58,14.61-55.18,13.08-77.55-3.65-25.26-18.9-33.76-55.73-19.36-83.86,5.28-10.32,13.58-19.2,21.61-27.79,4.57-4.9,9.3-10,13.45-15.26,12.88-16.44,13.08-39.11,13.25-59.12v-.55a114,114,0,0,1,1.73-19.14A82.34,82.34,0,0,1,267.14,191c10.14-16.05,27.3-27.35,47.07-31a73.4,73.4,0,0,1,13.28-1.22A67.19,67.19,0,0,1,368,172.12C396.56,193.46,399.48,230.66,387.62,256.37Z" transform="translate(-193.99 -153.69)"/>
      <path class="cls-2" d="M379.43,197.77a49,49,0,0,1-2.72,9.08c-.1-.26-.18-.53-.29-.79A61.44,61.44,0,0,0,365,187.34a20.25,20.25,0,0,0-.36-8.21c-.63-2.47-4.46-1.42-3.83,1.06a16.1,16.1,0,0,1,.48,3.47,38,38,0,0,0-17-9c-2.49-.56-3.56,3.27-1.06,3.83a35.76,35.76,0,0,1,17.49,10.11c-1.18,4.74-4,9.17-6.8,13.14-1.17,1.67-2.36,3.38-3.61,5.05a36.84,36.84,0,0,0-11.3-9.19c-2.26-1.18-4.28,2.25-2,3.43A33.91,33.91,0,0,1,347.81,210a28.38,28.38,0,0,1-8.43,7c-2.27,1.17-.27,4.6,2,3.43a30.84,30.84,0,0,0,8.78-7.07,35.16,35.16,0,0,1,5.4,18.34,48.25,48.25,0,0,1-8.49,4c-2.39.86-1.36,4.7,1.05,3.83a53.39,53.39,0,0,0,7.12-3.17q-.09.65-.21,1.29c-.47,2.5,3.36,3.57,3.83,1a37.48,37.48,0,0,0,.57-4.82,56,56,0,0,0,16.18-16.28,59.93,59.93,0,0,1-2.9,33.37c-.93,2.38,2.91,3.42,3.83,1.06a63.58,63.58,0,0,0,2-39.48,52.81,52.81,0,0,0,4.73-13.68C383.75,196.33,379.92,195.26,379.43,197.77Zm-20.05,31.31a39.74,39.74,0,0,0-6.55-19c1.75-2.27,3.38-4.64,5-6.94a48.28,48.28,0,0,0,6-11.14,57.46,57.46,0,0,1,9.37,16.77c.38,1.08.73,2.16,1.05,3.25A51.79,51.79,0,0,1,359.38,229.08Z" transform="translate(-193.99 -153.69)"/>
      <path class="cls-2" d="M262.71,419c-14.39.08-27.16-9.23-34.18-21.37-.44-.76-.84-1.53-1.24-2.31a45.32,45.32,0,0,0,18.94-9.91,42.58,42.58,0,0,0,7.26,8.1c1.93,1.66,4.76-1.14,2.81-2.81a40,40,0,0,1-7.11-8,58,58,0,0,0,7.07-8.5c1.44-2.12-2-4.11-3.44-2a51.83,51.83,0,0,1-5.73,7A41.56,41.56,0,0,1,242.45,365a46.5,46.5,0,0,0,10.23-7.21c1.88-1.75-.94-4.56-2.81-2.81a41.71,41.71,0,0,1-7.76,5.69,39.11,39.11,0,0,1,.93-9.74c.56-2.49-3.27-3.56-3.83-1.06a44,44,0,0,0-1,12.78,44.06,44.06,0,0,1-17.37,3.83,109.74,109.74,0,0,1,1.23-17.06c.37-2.5-3.46-3.58-3.83-1.05a116.58,116.58,0,0,0-1.32,18,40.92,40.92,0,0,1-7.51-1.26c-2.47-.65-3.53,3.18-1.06,3.84a46.88,46.88,0,0,0,8.69,1.42,69.12,69.12,0,0,0,4.47,21.86,31.8,31.8,0,0,1-10.93-1c-2.47-.66-3.53,3.17-1.05,3.83a35.84,35.84,0,0,0,13.66,1c.7,1.46,1.45,2.9,2.3,4.31,7.82,13,21.68,22.7,37.18,22.61C265.26,422.94,265.27,419,262.71,419ZM221,370.44a48.31,48.31,0,0,0,17.72-3.7,45.55,45.55,0,0,0,5.36,15.3,41.07,41.07,0,0,1-18.49,9.59A64.65,64.65,0,0,1,221,370.44Z" transform="translate(-193.99 -153.69)"/>
    </g>
  </g>
</svg>
