<svg id="Layer_1" data-name="Layer 1" xmlns="http://www.w3.org/2000/svg" viewBox="0 0 205.22 291.16">
  <defs>
    <style>
      .cls-1 {
        fill: #ff5056;
        stroke: #ff5056;
        stroke-miterlimit: 10;
      }
    </style>
  </defs>
  <g>
    <path class="cls-1" d="M374.14,169.21c-16.3-12.19-36.67-16.8-57.35-13-21,3.88-39.27,15.92-50.09,33.05A86.66,86.66,0,0,0,255,220.38a118.85,118.85,0,0,0-1.8,19.91v.55c-.18,20.23-.36,41.14-12.29,56.36-4,5.14-8.69,10.13-13.2,15C219.45,321,210.93,330.1,205.36,341c-15.38,30-6.3,69.38,20.69,89.57a75.31,75.31,0,0,0,44.83,14.53,69.85,69.85,0,0,0,37.9-10.71c14.28-9.24,25-24.52,30.21-43,3.14-11.16,3.36-22.63,3.58-33.71.12-6.24.25-12.7.9-19,2-19.24,16.39-34.41,30.32-49.08l.37-.4a113.28,113.28,0,0,0,21-30.16C407.78,231.63,404.61,192,374.14,169.21ZM391,257.1A108.45,108.45,0,0,1,370.86,286l-.37.4C356.72,301,341.1,317.4,339,338.18c-.67,6.48-.8,13-.92,19.37-.22,11.3-.43,22-3.41,32.57-4.91,17.44-15,31.8-28.31,40.44-22.57,14.61-55.18,13.08-77.54-3.65C203.51,408,195,371.18,209.4,343.05c5.28-10.32,13.58-19.2,21.61-27.79,4.57-4.9,9.3-10,13.45-15.26,12.89-16.43,13.09-39.11,13.26-59.12v-.55a114,114,0,0,1,1.73-19.14,82.34,82.34,0,0,1,11.09-29.49c10.14-16,27.3-27.35,47.07-31a72.53,72.53,0,0,1,13.28-1.23,67.17,67.17,0,0,1,40.53,13.38C400,194.19,402.88,231.39,391,257.1Z" transform="translate(-197.39 -154.42)"/>
    <path class="cls-1" d="M382.83,198.5a49.72,49.72,0,0,1-2.71,9.08c-.1-.26-.19-.53-.29-.79a61.65,61.65,0,0,0-11.4-18.69,20.57,20.57,0,0,0-.35-8.24c-.64-2.47-4.47-1.42-3.84,1.06a15.67,15.67,0,0,1,.48,3.49,38,38,0,0,0-17-9c-2.49-.56-3.55,3.27-1.06,3.83a35.79,35.79,0,0,1,17.49,10.13c-1.18,4.73-4,9.15-6.79,13.12-1.18,1.68-2.38,3.38-3.63,5.05a36.82,36.82,0,0,0-11.29-9.19c-2.26-1.18-4.27,2.25-2,3.43a33.7,33.7,0,0,1,10.75,8.95,28.5,28.5,0,0,1-8.43,7c-2.27,1.17-.26,4.6,2,3.43a30.93,30.93,0,0,0,8.77-7.06,35,35,0,0,1,5.4,18.34,48.83,48.83,0,0,1-8.48,4c-2.39.86-1.36,4.7,1.06,3.83a54.73,54.73,0,0,0,7.08-3.16c-.06.42-.1.85-.18,1.28-.47,2.5,3.36,3.57,3.83,1a37.59,37.59,0,0,0,.55-4.83A56,56,0,0,0,379,218.32a59.91,59.91,0,0,1-2.87,33.34c-.93,2.38,2.91,3.42,3.84,1.06a63.68,63.68,0,0,0,2-39.49,52.37,52.37,0,0,0,4.73-13.67C387.15,197.06,383.32,196,382.83,198.5Zm-20.05,31.31a39.79,39.79,0,0,0-6.56-19c1.76-2.26,3.39-4.63,5-6.94a48.24,48.24,0,0,0,6-11.14,57.46,57.46,0,0,1,9.37,16.77c.39,1.09.7,2.2,1,3.3A51.66,51.66,0,0,1,362.78,229.81Z" transform="translate(-197.39 -154.42)"/>
    <path class="cls-1" d="M266.11,419.71c-14.38.08-27.15-9.23-34.17-21.37-.45-.77-.85-1.54-1.25-2.32a45.4,45.4,0,0,0,18.93-9.91,43.35,43.35,0,0,0,7.27,8.11c1.94,1.66,4.76-1.14,2.81-2.81a40.18,40.18,0,0,1-7.12-8,58,58,0,0,0,7.08-8.49c1.44-2.11-2-4.11-3.43-2a54,54,0,0,1-5.73,7,41.5,41.5,0,0,1-4.65-14.19,46.8,46.8,0,0,0,10.24-7.21c1.87-1.75-.95-4.56-2.81-2.81a41.78,41.78,0,0,1-7.77,5.69,39.11,39.11,0,0,1,.93-9.74c.57-2.49-3.26-3.56-3.83-1.06a43.68,43.68,0,0,0-1,12.78,44.09,44.09,0,0,1-17.37,3.83,107.34,107.34,0,0,1,1.23-17.06c.37-2.5-3.46-3.58-3.84-1a117.84,117.84,0,0,0-1.32,18,41.06,41.06,0,0,1-7.51-1.26c-2.47-.65-3.53,3.18-1,3.84a46.64,46.64,0,0,0,8.68,1.42,69.32,69.32,0,0,0,4.46,21.83,31.63,31.63,0,0,1-10.91-1c-2.48-.66-3.53,3.17-1.06,3.83a35.84,35.84,0,0,0,13.66,1c.7,1.46,1.45,2.9,2.3,4.31,7.82,13,21.69,22.7,37.18,22.61C268.67,423.67,268.67,419.69,266.11,419.71Zm-41.69-48.54a48.26,48.26,0,0,0,17.71-3.7,45.72,45.72,0,0,0,5.36,15.29A41.07,41.07,0,0,1,229,392.35,64.58,64.58,0,0,1,224.42,371.17Z" transform="translate(-197.39 -154.42)"/>
  </g>
</svg>
