<svg id="Layer_1" data-name="Layer 1" xmlns="http://www.w3.org/2000/svg" viewBox="0 0 327 209">
  <defs>
    <style>
      .cls-1 {
        fill: #fff;
      }

      .cls-2 {
        fill: #a1cd40;
      }
    </style>
  </defs>
  <g>
    <g>
      <polyline class="cls-1" points="35.22 201.5 7.5 201.5 7.5 172.87"/>
      <polygon class="cls-2" points="35.22 209 0 209 0 172.87 15 172.87 15 194 35.22 194 35.22 209"/>
    </g>
    <g>
      <polyline class="cls-1" points="319.5 172.87 319.5 201.5 291.78 201.5"/>
      <polygon class="cls-2" points="327 209 291.78 209 291.78 194 312 194 312 172.87 327 172.87 327 209"/>
    </g>
    <g>
      <polyline class="cls-1" points="291.78 7.5 319.5 7.5 319.5 36.13"/>
      <polygon class="cls-2" points="327 36.13 312 36.13 312 15 291.78 15 291.78 0 327 0 327 36.13"/>
    </g>
    <g>
      <polyline class="cls-1" points="7.5 36.13 7.5 7.5 35.22 7.5"/>
      <polygon class="cls-2" points="15 36.13 0 36.13 0 0 35.22 0 35.22 15 15 15 15 36.13"/>
    </g>
  </g>
</svg>
