<svg id="Layer_1" data-name="Layer 1" xmlns="http://www.w3.org/2000/svg" viewBox="0 0 189.04 300">
  <defs>
    <style>
      .cls-1 {
        fill: #e1ecbd;
      }

      .cls-2 {
        fill: #fc3645;
      }
    </style>
  </defs>
  <g>
    <path class="cls-1" d="M216.79,53.21,231.7,10.09a5.8,5.8,0,0,0-.38-4.35,5.37,5.37,0,0,0-3.38-2.92L218.09.17c-2.87-.79-6,1.27-7.2,4.66L194.16,53.21h-128L87.87,290.94a9.39,9.39,0,0,0,9.5,9.06H213.26a9.39,9.39,0,0,0,9.5-9.06L244.52,53.21Z" transform="translate(-55.48 0)"/>
    <path class="cls-2" d="M206.17,53.21l14.91-43.12a5.8,5.8,0,0,0-.39-4.35,5.37,5.37,0,0,0-3.38-2.92L207.47.17c-2.88-.79-6,1.27-7.21,4.66L183.54,53.21H55.48L77.24,290.94a9.39,9.39,0,0,0,9.5,9.06H202.63a9.39,9.39,0,0,0,9.5-9.06L233.89,53.21ZM205.71,7a1.47,1.47,0,0,1,.52-.73l9.11,2.45L200,53.21H189.74Zm.62,283.44v.31c0,1.61-1.69,3-3.69,3H86.74c-2,0-3.68-1.36-3.68-3L61.89,59.48H227.48Z" transform="translate(-55.48 0)"/>
    <g>
      <path class="cls-2" d="M98.55,147.82c-4.47-2-5.32-2.91-5.32-4.54s1.35-3,3.72-3a4.9,4.9,0,0,1,4.37,2.49l.64.14,2.8-2A8.58,8.58,0,0,0,97,136.78c-4.89,0-8,2.88-8,6.57,0,3.33,1.74,5.57,6.82,7.66,4.43,1.88,5.46,3.12,5.46,5.08s-1.74,3.58-4.22,3.58-4-1-5.47-3.51L91,156l-2.88,2a9.52,9.52,0,0,0,9,5.18c4.94,0,8.45-3.27,8.45-7.38C105.54,152.47,104,150.27,98.55,147.82Z" transform="translate(-55.48 0)"/>
      <polygon class="cls-2" points="67.81 153.14 67.74 153.14 59.9 137.46 54.57 137.46 54.57 162.58 58.62 162.58 58.58 142.74 58.65 142.74 67.42 159.96 68.06 159.96 76.82 142.74 76.89 142.74 76.86 162.58 80.9 162.58 80.9 137.46 75.58 137.46 67.81 153.14"/>
      <path class="cls-2" d="M149.58,137.46l-10.46,25.12h4.61l2.27-5.89h11.07l2.31,5.89H164l-10.36-25.12Zm-2.34,16,2.63-6.81c.6-1.59,1.17-3.16,1.6-4.72h.1q.69,2.34,1.6,4.72l2.66,6.81Z" transform="translate(-55.48 0)"/>
      <polygon class="cls-2" points="115.36 137.46 111.25 137.46 111.25 162.58 126.4 162.58 126.86 158.82 115.36 158.82 115.36 137.46"/>
      <polygon class="cls-2" points="134.31 137.46 130.2 137.46 130.2 162.58 145.35 162.58 145.81 158.82 134.31 158.82 134.31 137.46"/>
    </g>
  </g>
</svg>
