<svg id="Layer_1" data-name="Layer 1" xmlns="http://www.w3.org/2000/svg" viewBox="0 0 178.42 300">
  <defs>
    <style>
      .cls-1 {
        fill: #fc3645;
      }
    </style>
  </defs>
  <g>
    <path class="cls-1" d="M211.48,53.21l14.91-43.12A5.84,5.84,0,0,0,226,5.74a5.37,5.37,0,0,0-3.38-2.92L212.78.17c-2.88-.79-6,1.27-7.2,4.66L188.85,53.21H60.79L82.56,290.94a9.38,9.38,0,0,0,9.5,9.06H207.94a9.38,9.38,0,0,0,9.5-9.06L239.21,53.21ZM211,7a1.47,1.47,0,0,1,.53-.73l9.11,2.45L205.28,53.21H195.05Zm.63,283.44,0,.31c0,1.61-1.69,3-3.69,3H92.06c-2,0-3.69-1.36-3.69-3L67.21,59.48H232.79Z" transform="translate(-60.79 0)"/>
    <path class="cls-1" d="M103.86,147.82c-4.47-2-5.32-2.91-5.32-4.54s1.35-3,3.73-3a4.9,4.9,0,0,1,4.36,2.49l.64.14,2.8-2a8.57,8.57,0,0,0-7.8-4.12c-4.9,0-8,2.88-8,6.57,0,3.33,1.74,5.57,6.81,7.66,4.44,1.88,5.47,3.12,5.47,5.08s-1.74,3.58-4.23,3.58-4-1-5.46-3.51l-.64-.14-2.87,2a9.51,9.51,0,0,0,9,5.18c4.93,0,8.44-3.26,8.44-7.38C110.85,152.47,109.33,150.27,103.86,147.82Z" transform="translate(-60.79 0)"/>
    <polygon class="cls-1" points="67.81 153.14 67.74 153.14 59.9 137.46 54.57 137.46 54.57 162.58 58.62 162.58 58.58 142.74 58.65 142.74 67.42 159.96 68.06 159.96 76.82 142.74 76.89 142.74 76.86 162.58 80.9 162.58 80.9 137.46 75.58 137.46 67.81 153.14"/>
    <path class="cls-1" d="M154.9,137.46l-10.47,25.12H149l2.27-5.89h11.08l2.3,5.89h4.62l-10.37-25.12Zm-2.34,16,2.62-6.82c.6-1.59,1.17-3.16,1.6-4.72h.1q.7,2.34,1.6,4.72l2.66,6.82Z" transform="translate(-60.79 0)"/>
    <polygon class="cls-1" points="115.36 137.46 111.25 137.46 111.25 162.58 126.4 162.58 126.86 158.82 115.36 158.82 115.36 137.46"/>
    <polygon class="cls-1" points="134.32 137.46 130.2 137.46 130.2 162.58 145.35 162.58 145.81 158.82 134.32 158.82 134.32 137.46"/>
  </g>
</svg>
