<svg id="Layer_1" data-name="Layer 1" xmlns="http://www.w3.org/2000/svg" viewBox="0 0 315.72 174.07">
  <defs>
    <style>
      .cls-1 {
        fill: #d7ecaa;
      }

      .cls-2 {
        fill: #ff5056;
        stroke: #ff5056;
        stroke-miterlimit: 10;
      }
    </style>
  </defs>
  <g>
    <path class="cls-1" d="M448.54,261.26a9,9,0,0,0-7.15,3.55v-15a9.07,9.07,0,0,0-9.07-9.07h-9a9,9,0,0,0-8.91,7.57V232.09a9.07,9.07,0,0,0-9.07-9.06H387.48a9.07,9.07,0,0,0-9.07,9.06v55.45H233V231.65a9.07,9.07,0,0,0-9.07-9.07H206a9.07,9.07,0,0,0-9.07,9.07V247.4a9.05,9.05,0,0,0-8.92-7.57h-9A9.07,9.07,0,0,0,170,248.9v15.35a9,9,0,0,0-16.22,5.51V339A9,9,0,0,0,170,344.55v15a9.07,9.07,0,0,0,9.06,9.07h9a9.05,9.05,0,0,0,8.92-7.57v16.25a9.07,9.07,0,0,0,9.07,9.07h17.89a9.07,9.07,0,0,0,9.07-9.07V321.71H378.41v56a9.07,9.07,0,0,0,9.07,9.06h17.89a9.07,9.07,0,0,0,9.07-9.06V362a9.05,9.05,0,0,0,8.91,7.56h9a9.07,9.07,0,0,0,9.07-9.07V345.11a9,9,0,0,0,16.22-5.51V270.33A9.07,9.07,0,0,0,448.54,261.26Z" transform="translate(-141.89 -212.72)"/>
    <path class="cls-2" d="M444,251.89a11.24,11.24,0,0,0-7.15,2.56v-11.7a11.35,11.35,0,0,0-11.34-11.34h-9a11.31,11.31,0,0,0-6.65,2.15V225a11.35,11.35,0,0,0-11.33-11.34h-17.9A11.36,11.36,0,0,0,369.32,225v53.17H228.4V224.55a11.34,11.34,0,0,0-11.33-11.33h-17.9a11.35,11.35,0,0,0-11.34,11.33v8.07a11.26,11.26,0,0,0-6.64-2.15h-9a11.36,11.36,0,0,0-11.34,11.34v12.07a11.33,11.33,0,0,0-18.49,8.79v69.27a11.33,11.33,0,0,0,18.49,8.79v11.7a11.36,11.36,0,0,0,11.34,11.34h9a11.26,11.26,0,0,0,6.64-2.15v8.56a11.35,11.35,0,0,0,11.34,11.33h17.9a11.34,11.34,0,0,0,11.33-11.33v-53.3H369.32v53.74A11.36,11.36,0,0,0,380.66,382h17.9a11.35,11.35,0,0,0,11.33-11.34v-8.06a11.31,11.31,0,0,0,6.65,2.15h9a11.36,11.36,0,0,0,11.34-11.34V341.29a11.23,11.23,0,0,0,7.15,2.55,11.35,11.35,0,0,0,11.34-11.33V263.23A11.36,11.36,0,0,0,444,251.89ZM160.52,331.94a6.8,6.8,0,1,1-13.59,0V262.67a6.8,6.8,0,1,1,13.59,0Zm63.34,38.24a6.8,6.8,0,0,1-6.79,6.79h-17.9a6.8,6.8,0,0,1-6.79-6.79v-33a2.28,2.28,0,0,0-4.55,0v16.45a6.73,6.73,0,0,1-6.64,5.55h-9a6.8,6.8,0,0,1-6.8-6.79V241.81a6.81,6.81,0,0,1,6.8-6.8h9a6.74,6.74,0,0,1,6.64,5.55v64.19a2.28,2.28,0,0,0,4.55,0v-80.2a6.8,6.8,0,0,1,6.79-6.79h17.9a6.8,6.8,0,0,1,6.79,6.79V370.18Zm4.54-57.84V282.72H369.32v29.62Zm203.9,41a6.79,6.79,0,0,1-6.79,6.79h-9a6.76,6.76,0,0,1-6.68-5.66l-.6.05v-82a2.27,2.27,0,0,0-4.54,0v82.35a2.27,2.27,0,0,0,.63,1.57v14.18a6.8,6.8,0,0,1-6.79,6.8h-17.9a6.8,6.8,0,0,1-6.79-6.8V225a6.8,6.8,0,0,1,6.79-6.8h17.9a6.8,6.8,0,0,1,6.79,6.8v25.46a2.27,2.27,0,1,0,4.54,0v-9a6.75,6.75,0,0,1,6.65-5.55h9a6.8,6.8,0,0,1,6.79,6.8Zm18.49-20.86a6.79,6.79,0,0,1-13.58,0V263.23a6.79,6.79,0,0,1,13.58,0Z" transform="translate(-141.89 -212.72)"/>
  </g>
</svg>
