<svg id="Layer_1" data-name="Layer 1" xmlns="http://www.w3.org/2000/svg" viewBox="0 0 313.95 169.74">
  <defs>
    <style>
      .cls-1 {
        fill: #ff5056;
        stroke: #ff5056;
        stroke-miterlimit: 10;
      }
    </style>
  </defs>
  <path class="cls-1" d="M445.14,254.31a11.23,11.23,0,0,0-7.16,2.61V245.16a11.35,11.35,0,0,0-11.33-11.34h-9A11.26,11.26,0,0,0,411,236v-8.56a11.36,11.36,0,0,0-11.34-11.34H381.8a11.36,11.36,0,0,0-11.34,11.34v53.18H229.54V227a11.35,11.35,0,0,0-11.34-11.34H200.31A11.35,11.35,0,0,0,189,227V235a11.26,11.26,0,0,0-6.64-2.15h-9A11.35,11.35,0,0,0,162,244.22v12.14a11.23,11.23,0,0,0-7.15-2.62,11.35,11.35,0,0,0-11.34,11.34v69.28a11.35,11.35,0,0,0,11.34,11.34,11.23,11.23,0,0,0,7.15-2.62v11.76a11.35,11.35,0,0,0,11.34,11.34h9A11.26,11.26,0,0,0,189,364v8.56a11.36,11.36,0,0,0,11.34,11.34H218.2a11.36,11.36,0,0,0,11.34-11.34V319.3H370.46V373a11.35,11.35,0,0,0,11.34,11.33h17.89A11.35,11.35,0,0,0,411,373V365a11.26,11.26,0,0,0,6.64,2.15h9A11.35,11.35,0,0,0,438,355.78V343.64a11.27,11.27,0,0,0,18.49-8.72V265.64A11.34,11.34,0,0,0,445.14,254.31ZM161.66,334.36a6.8,6.8,0,0,1-13.59,0V265.08a6.8,6.8,0,0,1,13.59,0ZM225,282.86v89.73a6.8,6.8,0,0,1-6.8,6.79H200.31a6.8,6.8,0,0,1-6.8-6.79V339.64a2.27,2.27,0,1,0-4.54,0v16.45a6.75,6.75,0,0,1-6.64,5.55h-9a6.81,6.81,0,0,1-6.8-6.8V244.22a6.81,6.81,0,0,1,6.8-6.8h9A6.75,6.75,0,0,1,189,243v64.19a2.27,2.27,0,1,0,4.54,0V227a6.81,6.81,0,0,1,6.8-6.8H218.2A6.81,6.81,0,0,1,225,227Zm145.46,31.89H229.54V285.13H370.46Zm63,41a6.8,6.8,0,0,1-6.79,6.8h-9a6.76,6.76,0,0,1-6.67-5.67l-.6,0v-82a2.27,2.27,0,1,0-4.54,0v82.34a2.24,2.24,0,0,0,.63,1.56V373a6.8,6.8,0,0,1-6.8,6.79H381.8A6.8,6.8,0,0,1,375,373V227.41a6.8,6.8,0,0,1,6.8-6.79h17.89a6.8,6.8,0,0,1,6.8,6.79v25.46a2.27,2.27,0,0,0,4.54,0v-9a6.75,6.75,0,0,1,6.64-5.55h9a6.8,6.8,0,0,1,6.79,6.8Zm18.49-20.86a6.8,6.8,0,0,1-13.59,0V265.64a6.8,6.8,0,0,1,13.59,0Z" transform="translate(-143.03 -215.13)"/>
</svg>
